<?xml version="1.0" encoding="UTF-8"?><svg id="Layer_2" xmlns="http://www.w3.org/2000/svg" viewBox="0 0 510.66 764.98"><defs><style>.cls-1{fill:#32506c;}.cls-1,.cls-2{stroke-width:0px;}.cls-2{fill:#001834;}</style></defs><g id="Layer_2-2"><path class="cls-1" d="M.8,24.97c1.92-7.47,5.18-14.14,11.23-19.2C16.66,1.89,22.01.02,28,.02,96.95,0,165.9,0,234.84,0c82.31,0,164.62,0,246.92,0,13.82,0,25.29,8.91,28.34,22.02.39,1.69.45,3.49.45,5.24.02,236.46-.02,472.93.11,709.39,0,15.07-14.02,28.24-28.44,28.22-149.87-.23-299.74-.31-449.61.1-17.48.05-28.39-10.93-31.16-24.67-.09-.46-.4-.88-.62-1.32-.02-1.13-.04-2.27-.04-3.4,0-236.87,0-473.74,0-710.61ZM392.55,650.94c0,35.12.01,69.9-.03,104.68,0,2.74,1.56,2.99,3.68,2.98,28.36-.02,56.72.11,85.07-.06,14.13-.09,23.19-9.63,23.19-23.74,0-74.23-.03-148.47.07-222.7,0-3.55-.84-4.74-4.56-4.71-20.54.18-41.09.2-61.63-.01-3.55-.04-5.31,1.47-7.35,3.96-7.37,9.03-14.88,17.96-22.62,26.68-3.55,4-3.85,4.2-.31,7.76,12.33,12.41,24.63,24.84,36.95,37.25,2.76,2.78,4.69,4.72,9.93,2.81,14.64-5.33,30.09,5.37,29.93,20.98-.17,15.65-11.67,26.29-27.83,22.92-17.15-3.58-20.5-22.83-14.21-33.56.8-1.36,1.73-2.65,2.44-3.73-2.24-2.5-4.08-4.74-6.11-6.77-11.9-11.96-23.84-23.87-35.77-35.79-3.67-3.67-3.8-3.79-7.42-.39-15.5,14.56-33.66,24.93-52.81,33.77-1.74.8-3.47,1.62-5.51,2.57,1.01,1.2,1.52,1.89,2.12,2.5,9.49,9.72,18.97,19.45,28.5,29.13,2.56,2.6,5.3,5.01,7.94,7.53,7.54,7.22,15.21,14.3,22.56,21.7,11.69,11.79,23.14,23.82,34.8,35.64.64.65,2.6.79,3.45.3,4.51-2.61,9.27-3.6,14.46-3.5,10.93.2,18.25,5.69,22.67,15.27,3.88,8.42,1.55,20.36-4.87,27.13-6.53,6.9-17.98,11.03-28.99,6.19-9.17-4.03-15.76-14.41-15.53-22.6.18-6.38,2.23-11.73,5.34-16.64-12.52-12.52-24.87-24.86-37.57-37.56ZM499.58,15.59c-53.64,54.57-107.1,108.95-160.55,163.33,4.64,2.16,10.08,5.03,15.79,7.22,3.41,1.31,7.22,2.16,10.85,2.18,29.36.17,58.71.1,88.07.08,1.45,0,2.89-.15,4.55-.24,0-1.87,0-3.24,0-4.62,0-22.43,0-44.86,0-67.28,0-5.17,1.3-6.47,6.43-6.48,11.97-.02,23.94-.09,35.91.04,2.88.03,3.91-.67,3.89-3.77-.13-26.33-.08-52.67-.07-79,0-4.23-1.65-7.74-4.88-11.46ZM240.93,161.96c-1.09-1.5-1.5-2.25-2.08-2.84-17.84-17.85-35.67-35.71-53.58-53.5-8.89-8.83-18-17.45-26.86-26.32-2.51-2.51-5.19-3.64-8.7-3.62-13.1.08-26.21.01-39.31.01q-5.21,0-5.21,5.18c0,34.61-.02,69.22.02,103.83,0,2.62.49,5.25.5,7.87.06,10.34.03,20.69.03,32.21,37.88-37,82.48-58.11,135.19-62.83ZM252.3,751.88c.37-5.71.94-10.59.95-15.47.08-43.58.02-87.16.11-130.74,0-3.23-.91-4.23-4.25-4.42-9.5-.53-19.12-.82-28.43-2.6-12.28-2.35-24.29-6.09-36.47-9.05-1.49-.36-3.75-.17-4.81.74-3.71,3.18-7.03,6.8-10.52,10.23-6.01,5.89-12.09,11.72-18.04,17.67-5.41,5.4-10.69,10.91-15.06,15.38,38.74,39.31,77.41,78.56,116.52,118.25ZM252.34,161.61c.4-3.19.93-5.42.92-7.64-.17-48.1-.42-96.19-.56-144.29,0-2.87-.92-3.61-3.69-3.6-28.72.08-57.44.07-86.16-.01-2.87,0-4.03.81-4.01,3.85.11,17.51-.05,35.02.12,52.53.05,4.68.56,9.14,4.77,12.8,6.7,5.81,12.7,12.41,19.02,18.66,21.8,21.58,43.61,43.15,65.45,64.69,1.02,1,2.33,1.71,4.14,3.02ZM316.18,453.21c.52.68.77,1.11,1.12,1.45,14.79,14.79,29.55,29.61,44.46,44.28,1.15,1.13,3.31,1.71,5.01,1.72,20.03.12,40.07,0,60.1.16,3.08.02,4.79-1.02,6.36-3.51,7.74-12.31,13.66-25.46,18.33-39.2.3-.88-.23-2.42-.91-3.17-3.61-4.02-7.3-7.99-11.13-11.79-11.37-11.28-22.85-22.47-34.25-33.73-6.81-6.73-13.62-13.47-20.3-20.33-1.94-1.99-3.35-2.22-5.21-.02-2.27,2.69-4.63,5.3-7.11,7.8-9.76,9.84-19.57,19.63-29.38,29.42-9,8.97-18.03,17.92-27.09,26.92ZM323.38,646.71v.05c-19.9,0-39.81.06-59.71-.06-3.31-.02-4.35,1.02-4.32,4.34.15,14.36.18,28.72-.02,43.08-.05,3.47,1.13,4.16,4.33,4.14,22.17-.13,44.34-.07,66.51-.07,10.23,0,10.16,0,10.25,10.17.15,15.6.4,31.2.63,46.8.02,1.57-.42,3.47,2.22,3.43,12.95-.2,25.91-.49,38.86-.49,3.98,0,4.38-1.92,4.37-5.17-.08-34.01-.09-68.02.03-102.03.01-3.29-.82-4.29-4.2-4.26-19.65.16-39.3.08-58.95.08ZM306.63,67.33c-14.37,0-28.74.11-43.1-.08-3.39-.04-4.21.97-4.2,4.26.13,28.61.13,57.22.01,85.82-.01,3.41.97,4.4,4.44,4.69,10.35.87,20.78,1.67,30.95,3.67,10.43,2.05,20.6,5.42,30.84,8.36,2.71.78,4.81,1.09,7.11-1.31,6.18-6.45,12.75-12.51,18.96-18.93,1.23-1.27,2.13-3.46,2.14-5.22.14-25.83.05-51.67.16-77.5.01-3.03-.9-3.85-3.85-3.83-14.49.13-28.99.06-43.48.07ZM224.5,734.9c-31.44-31.58-62.93-63.2-94.69-95.09-31.75,31.44-63.47,62.86-95.19,94.27l.65.82h189.23ZM174.32,245.08v-.02c-24.7,0-49.39.04-74.09-.06-2.77-.01-4.85.64-6.56,2.81-2.32,2.96-4.65,5.94-7.17,8.72-2.38,2.62-1.9,4.57.8,6.48,1.33.94,2.55,2.05,3.7,3.2,23.52,23.49,47.02,46.99,70.52,70.49,3.69,3.69,3.71,3.7,7.33.08,23.53-23.51,47.05-47.03,70.57-70.55,3.83-3.83,7.6-7.72,11.51-11.48,2.64-2.54,1.79-5.67,1.26-8.49-.13-.68-3.21-1.14-4.93-1.14-24.32-.07-48.64-.05-72.96-.05ZM161.63,416.05c-.65.52-1.29,1.03-1.94,1.55-.26,3.73-.74,7.45-.75,11.18-.07,29.6-.07,59.21-.02,88.81,0,4.64.58,9.28.54,13.92-.08,11.95-.43,23.89-.46,35.84,0,1.36.96,3.33,2.08,3.99,4.76,2.8,9.76,5.21,14.66,7.78,2.42,1.27,4.21.88,6.24-1.19,10.57-10.79,21.33-21.39,32.01-32.08,11.48-11.49,22.92-23.01,34.43-34.47,1.87-1.86,2.74-3.39.46-5.66-17.08-16.99-34.24-33.9-51.06-51.14-12.3-12.6-24.14-25.67-36.18-38.53ZM504.28,195.16c-3.52-.25-6.49-.63-9.47-.65-8.82-.08-17.64.15-26.45-.11-3.5-.1-4.16,1.13-4.12,4.32.17,13.48.14,26.96.05,40.44-.01,1.78-.27,4.08-1.37,5.25-6.17,6.61-12.52,13.07-19.05,19.33-3.34,3.21-3.63,4.06-1.36,8.35,2.83,5.33,5.63,10.69,8.09,16.19,8.13,18.19,14.54,36.91,17,56.8,1.23,9.94,2.52,19.87,3.47,29.84.25,2.6.91,3.46,3.52,3.42,8.44-.13,16.88-.23,25.32.03,3.69.11,4.59-1.1,4.59-4.67-.1-58.45-.06-116.9-.06-175.35,0-1.11-.11-2.22-.16-3.18ZM80.89,265.26c-1.15,1.6-1.64,2.15-2,2.78-8.16,14.6-15.26,29.66-20.54,45.59-6.57,19.82-10.31,40.03-10.09,60.96.03,3.1,1.07,3.77,3.93,3.76,24.05-.1,48.11-.02,72.16-.17,1.76-.01,3.93-.96,5.21-2.2,8.23-7.96,16.19-16.19,24.4-24.17,2.21-2.15,4.99-3.72,6.63-4.92-27.24-27.9-53.25-54.55-79.7-81.65ZM122.37,554.31c-21.17-16.55-37.45-36.58-51.71-60.28-1.51,2.17-2.27,3.7-3.41,4.84-18.85,18.92-37.69,37.85-56.71,56.58-2.31,2.28-3.09,4.42-3.06,7.48.13,13.23.15,26.47.01,39.7-.03,3.1.83,4.09,4.02,4.07,18.15-.14,36.29-.13,54.44,0,2.91.02,4.93-.9,6.94-2.91,11.68-11.6,23.5-23.05,35.19-34.64,4.7-4.66,9.18-9.53,14.29-14.85ZM7.84,191.63c-.17,1.75-.28,2.33-.28,2.91,0,59.96.03,119.92-.03,179.87,0,3.04,1.19,3.88,4.05,3.87,9.19-.03,18.38.21,27.56.13.76,0,2.1-1.54,2.18-2.46.74-8.6.74-17.29,1.96-25.81,3.17-22.13,9.74-43.33,19.26-63.56,3.74-7.96,8-15.67,12.07-23.48.87-1.67,1.42-3.05-.36-4.65-3.27-2.92-6.37-6.04-9.47-9.14-10.9-10.93-21.8-21.87-32.65-32.85-7.91-8.01-15.73-16.09-24.27-24.84ZM178.8,238.3v.04c23.3,0,46.6-.03,69.91.04,2.79,0,4.62-.46,4.61-3.81-.05-20.66-.04-41.31-.01-61.97,0-2.83-1.09-3.86-4.06-3.97-11.64-.43-23.05,1.22-34.38,3.52-14.46,2.93-28.27,7.85-41.83,13.64-13.73,5.86-26.71,13.11-38.39,22.25-9.76,7.64-18.53,16.57-27.63,25.04-1.03.96-1.44,2.6-2.14,3.93,1.47.43,2.93,1.24,4.4,1.25,23.18.08,46.35.06,69.53.06ZM435.33,272.43c-26.62,26.25-52.62,51.9-78.85,77.77,4.81,5,9.1,9.56,13.51,14.01,3.36,3.39,6.98,6.53,10.24,10.01,2.76,2.95,5.48,5.31,9.96,4.75,3.85-.49,7.77-.63,11.65-.64,19.66-.06,39.32-.03,58.98-.05,1.32,0,2.65-.11,3.85-.17-.41-37.85-11-72.38-29.35-105.67ZM252.34,500.23c.37-4.46.91-8.04.92-11.62.07-32.88.05-65.75.04-98.63,0-4.95-.02-4.96-5.07-4.96-35.4,0-70.79,0-106.19,0-1.3,0-2.6,0-3.82,0,38.06,38.43,75.85,76.57,114.11,115.21ZM259.41,500.22c38.92-38.59,77.15-76.49,115.94-114.96-1.51-.13-2.09-.22-2.67-.22-36.65-.01-73.31.02-109.96-.08-3.18,0-3.35,1.44-3.35,3.91.06,23.18.03,46.35.03,69.53,0,13.6,0,27.2,0,41.83ZM99.08,75.69c-4.55,0-8.45.21-12.32-.06-3.29-.23-4.87.85-5.92,4.11-3.47,10.71-10.43,18.15-21.56,21.14-2.16.58-2.6,1.79-2.6,3.83.05,41.59.04,83.17.1,124.76,0,1.16.33,2.64,1.08,3.41,6.69,6.86,13.46,13.63,20.36,20.27.53.51,2.68.29,3.23-.34,4.9-5.55,9.75-11.16,14.28-17.01,1.58-2.04,3.19-4.78,3.2-7.21.19-49.4.15-98.8.15-148.2,0-1.36,0-2.72,0-4.69ZM11.66,747.91c.77-.69,1.45-1.24,2.06-1.86,5.99-6.1,11.91-12.27,17.96-18.31,11.37-11.35,22.86-22.59,34.17-34,1.17-1.18,2.09-3.22,2.1-4.87.14-23.94.05-47.89.18-71.83.02-3.44-1.36-4.37-4.45-4.36-17.64.05-35.28.04-52.93-.05-2.43-.01-3.26.71-3.26,3.23.08,40.58.04,81.15.12,121.73,0,3.79.99,7.42,4.05,10.31ZM7.71,548.07c.89-.56,1.59-.83,2.08-1.32,6.86-6.8,13.7-13.62,20.52-20.46,11.54-11.57,22.97-23.25,34.65-34.67,2.36-2.3,2.6-4.04,1.22-6.86-3.04-6.2-6.1-12.43-8.54-18.88-9.43-24.94-15.46-50.63-16.07-77.42-.06-2.64-1.05-3.52-3.62-3.48-7.69.1-15.38.03-23.06.03-2.34,0-4.68,0-7.18,0v163.06ZM323.41,256.45v.03c19.27,0,38.53.01,57.8-.03,1.19,0,2.78-.02,3.5-.73,6.54-6.46,12.92-13.06,19.34-19.63,1.54-1.58,1.22-2.85-.32-4.44-9.46-9.76-19.2-19.23-30.97-26.18-12.1-7.14-24.46-13.83-36.68-20.75-2.25-1.27-3.85-.76-5.64,1.02-9.71,9.62-19.59,19.08-29.31,28.7-12.35,12.23-24.61,24.53-36.85,36.87-1.05,1.05-1.59,2.61-2.37,3.93,1.48.41,2.97,1.16,4.45,1.17,19.01.08,38.03.05,57.04.05ZM72.21,483.51c8.06-8.08,15.23-15.28,22.41-22.47,10.62-10.63,21.25-21.25,31.87-31.88,6.38-6.39,12.76-12.78,19.12-19.2,3.41-3.44,3.38-3.47-.18-7.02-5-4.98-10.16-9.81-14.91-15.01-2.09-2.29-4.19-2.98-7.15-2.97-22.68.11-45.35.06-68.03.05-7.07,0-7.27,0-6.91,6.86.44,8.13.53,16.39,2.11,24.33,2.5,12.52,5.57,24.99,9.43,37.15,3.17,9.98,7.84,19.47,12.25,30.16ZM152.77,413.09c-.28-.16-.56-.33-.84-.49-3.21,3.48-6.3,7.06-9.64,10.41-16.23,16.31-32.52,32.55-48.79,48.82-5.17,5.17-10.36,10.31-15.38,15.62-.82.87-1.36,2.67-1.06,3.79.46,1.75,1.59,3.39,2.68,4.9,6.88,9.58,13.25,19.6,20.91,28.51,7.17,8.35,15.74,15.5,23.68,23.19,1.73,1.67,3.06,1.4,4.76-.28,6.79-6.73,13.65-13.4,20.65-19.93,2.21-2.06,3.11-4.18,3.09-7.22-.12-20.66-.06-41.33-.06-62,0-15.12,0-30.23,0-45.35ZM259.58,263.96c-.06.46-.15.83-.15,1.19,0,36.55.02,73.11-.07,109.66,0,3.03,1.2,3.5,3.82,3.49,17.52-.08,35.04-.1,52.56.03,2.79.02,4.73-.91,6.61-2.83,6.71-6.84,13.48-13.62,20.33-20.31,4.59-4.48,4.69-4.42.09-8.93-8.89-8.7-17.89-17.3-26.7-26.09-7.91-7.9-15.53-16.09-23.46-23.97-10.86-10.78-21.89-21.39-33.03-32.25ZM253.3,262.62c-1.63,1.42-2.42,2.02-3.11,2.71-25.14,25.12-50.28,50.24-75.4,75.38-4.95,4.96-4.87,5.88.61,10.45.19.16.43.28.6.45,7.91,7.9,15.86,15.75,23.68,23.75,1.87,1.91,3.68,2.99,6.49,2.98,12.17-.02,24.34.21,36.51.34,10.05.11,10.61-.46,10.61-10.71,0-33.4,0-66.79,0-100.19,0-1.34,0-2.69,0-5.16ZM259.4,507.78c1.22,1.53,1.67,2.24,2.25,2.81,7.61,7.5,15.28,14.94,22.85,22.48,15.09,15.03,30.16,30.08,45.13,45.23,1.94,1.97,3.4,2.51,6.11,1.31,18.84-8.34,36.55-18.49,52.36-31.78,2.34-1.97,4.56-4.09,6.91-6.21-9.38-9.42-18.57-18.24-27.24-27.53-4.6-4.93-9.33-6.95-16.33-6.82-28.47.51-56.96.21-85.44.22-1.83,0-3.67.16-6.59.3ZM352.73,344.76c-.83.3-.53.28-.37.12,9.31-9.36,18.67-18.68,27.85-28.17,1.06-1.09,1.64-3.1,1.65-4.69.13-14.74-.03-29.49.17-44.24.05-3.63-1.02-4.66-4.64-4.64-34.66.14-69.32.11-103.98.14-.92,0-1.84.11-3.42.22,27.8,27.3,55.09,54.11,82.74,81.27ZM74.1,684.76c2.21-1.82,3.83-2.96,5.21-4.33,12.15-12.07,24.26-24.19,36.38-36.29,11.11-11.11,22.29-22.15,33.25-33.41,1.78-1.83,3.5-4.6,3.63-7.02.44-8.55.28-17.13.08-25.7-.03-1.44-1.1-3.37-2.29-4.17-7.6-5.1-15.37-9.94-23.21-14.95-15.53,15.6-31.32,31.34-46.91,47.27-2.23,2.28-6.14,3.38-6.14,7.54,0,23.31,0,46.62,0,71.06ZM306.64,61.3c14.61,0,29.21-.05,43.82.05,2.57.02,3.51-.66,3.49-3.37-.11-15.99-.11-31.98,0-47.97.02-2.95-.97-3.95-3.94-3.94-29.08.08-58.17.08-87.25,0-2.7,0-3.41.92-3.39,3.49.1,15.99.12,31.98,0,47.97-.02,2.96.84,3.87,3.84,3.84,14.48-.14,28.96-.07,43.44-.07ZM48.81,225.45c.53-.42,1.07-.84,1.6-1.26.06-.97.18-1.95.18-2.92.01-28.47.03-56.94,0-85.41-.01-10.8-.12-21.6-.36-32.4-.02-.74-1.39-1.86-2.31-2.09-12.37-3.16-19.99-10.93-23.13-23.27-.23-.9-1.32-2.21-2.05-2.24-4.97-.2-9.95-.1-14.82-.1-.2.96-.34,1.32-.34,1.69-.02,34.39-.06,68.78.04,103.17,0,1.4.99,3.08,2.03,4.13,10.86,11.01,21.86,21.89,32.71,32.9,2.36,2.39,4.31,5.19,6.44,7.8ZM62.39,6.12c-11.09,0-22.19.21-33.27-.06-12.45-.3-21.4,11.72-21.52,19.82-.2,13.48-.02,26.97-.08,40.46-.01,2.49,1.04,3.35,3.42,3.28,3.27-.1,6.57-.19,9.83.04,2.55.18,3.36-1.01,4.15-3.19,1.35-3.73,2.65-7.68,4.94-10.83,8.44-11.59,21.45-14.9,34.45-10.03,9.18,3.44,14.26,10.72,16.58,20.05.51,2.04.92,3.99,3.66,3.94,3.65-.06,7.31.03,10.96-.1,2.48-.09,3.67-1.22,3.65-4.04-.12-18.65-.11-37.31-.01-55.96.01-2.67-.86-3.46-3.48-3.43-11.09.12-22.18.05-33.27.05ZM382.07,641.35c.15-.34.31-.68.46-1.02-2.36-2.19-4.78-4.31-7.06-6.57-8.64-8.59-17.27-17.18-25.82-25.85-5.64-5.72-11.18-11.54-16.7-17.38-1.42-1.51-2.66-2.26-4.9-1.4-3.98,1.52-8.08,2.78-12.2,3.88-17.63,4.71-35.44,8.3-53.81,8.44-.88,0-2.49,1.39-2.5,2.16-.16,11.59-.14,23.19,0,34.79,0,.77,1.32,2.09,2.14,2.19,3.61.45,7.25.74,10.89.74,33.03.05,66.05.03,99.08.03,3.48,0,6.96,0,10.44,0ZM296.45,704.25c-11.08,0-22.16.1-33.24-.06-2.95-.04-3.89.77-3.86,3.8.15,15.49.13,30.98.02,46.47-.02,3.06.84,4.22,4.05,4.2,22.29-.11,44.58-.11,66.87-.01,3.2.01,4.09-1.14,4.07-4.21-.12-15.24-.15-30.47.02-45.71.04-3.62-1.41-4.55-4.68-4.52-11.08.1-22.16.04-33.24.04ZM413.69,90.85c.38.21.77.42,1.15.63,26.78-26.74,53.56-53.47,80.57-80.44-3.38-3.56-8.24-4.88-13.51-4.89-21.29-.06-42.58.05-63.87-.11-3.47-.03-4.44.93-4.42,4.41.14,25.7.08,51.4.08,77.1,0,1.1,0,2.2,0,3.3ZM247.54,758.1c.11-.41.23-.82.34-1.22-3.54-3.39-7.32-6.57-10.57-10.22-3.2-3.6-6.57-4.9-11.58-4.88-64.64.24-129.29.15-193.93.19-1.72,0-3.92-.14-5.06.8-3.91,3.23-7.45,6.91-11.19,10.49,5.09,4.98,10.97,5.28,16.7,5.29,70.19.08,140.38.05,210.56.03,1.57,0,3.15-.31,4.72-.47ZM503.94,498.37c.26-.74.48-1.07.48-1.4.03-36.39.02-72.78.08-109.17,0-2.19-.88-2.8-2.92-2.79-9.19.06-18.38.06-27.58-.02-2.13-.02-2.81.76-2.86,2.86-.1,4.76-.3,9.53-.75,14.27-1.52,15.89-4.59,31.48-9.47,46.69-1.13,3.51-1.01,6.38,2.28,8.87,2.89,2.19,5.47,4.82,8.03,7.41,10.84,10.97,21.63,21.99,32.72,33.28ZM368.14,194.7c28.04,17.56,50.38,39.86,68.33,66.64.94-.58,1.43-.76,1.77-1.1,6.21-6.19,12.49-12.31,18.5-18.69,1.11-1.18,1.48-3.44,1.5-5.21.13-12.46.08-24.93.07-37.4,0-1.35-.11-2.69-.18-4.25h-89.98ZM152.77,37.56c0-9.19-.14-18.38.07-27.56.07-3.25-1.07-3.99-4.1-3.96-12.96.15-25.93.22-38.89-.02-3.86-.07-4.85,1.44-4.69,4.86.29,6.14.61,12.29.58,18.44-.06,12.31-.32,24.63-.58,36.94-.05,2.43.89,3.37,3.32,3.35,13.47-.06,26.93-.06,40.4-.02,2.87,0,3.98-1.16,3.94-4.11-.13-9.31-.05-18.63-.04-27.94ZM504.22,115.85c-12.68,0-24.89.02-37.09-.01-2.8,0-2.83,1.81-2.83,3.83.02,21.79.05,43.58-.04,65.37-.01,2.69.89,3.44,3.48,3.41,10.83-.12,21.67-.18,32.49,0,3.27.06,4.3-.8,4.28-4.2-.14-21.54-.06-43.08-.06-64.61,0-1.1-.13-2.2-.23-3.8ZM253.3,517.71c-22.1,21.99-44.24,44.02-66.45,66.13-.24-.34-.15-.05.04.03.8.36,1.61.7,2.44.98,19.21,6.32,38.94,9.69,59.13,10.43,4.81.18,4.83.06,4.83-4.79,0-23.32,0-46.63,0-69.95,0-1.11,0-2.23,0-2.84ZM325.24,584.16c-22.31-22.3-44.04-44.02-65.74-65.72-.02.46-.09,1.28-.09,2.11,0,23.55.07,47.09-.07,70.63-.02,3.36.96,4.18,4.26,4.23,12.4.19,24.51-1.82,36.5-4.56,8.38-1.91,16.62-4.41,25.15-6.7ZM324.3,180.43c-19.73-7.3-39.9-11.34-60.8-11.84-3.46-.08-4.17,1.05-4.15,4.29.13,23.19.07,46.38.08,69.56,0,.93.09,1.86.14,2.71,21.58-21.57,43.01-42.99,64.74-64.72ZM359.99,145.69c1.46-1.72,2.35-2.94,3.41-3.98,13.8-13.41,27.65-26.76,41.37-40.26,1.18-1.16,2.02-3.22,2.06-4.88.21-8.56-.01-17.12.16-25.68.06-2.87-.91-3.64-3.68-3.62-13.22.12-26.44.16-39.66-.02-3.16-.04-3.73,1.14-3.71,3.95.1,16.37.05,32.74.05,49.11,0,8.28,0,16.55,0,25.38ZM406.62,61.14c.14-.98.29-1.59.29-2.2.02-16.62-.03-33.24.07-49.86.02-2.75-1.3-3.02-3.49-3.01-13.34.06-26.69.12-40.03-.03-2.98-.03-3.53,1.08-3.51,3.75.1,15.99.04,31.98.06,47.97,0,1.08.19,2.16.3,3.36h46.31ZM454.11,448.42c8.37-21.29,9.87-42.05,11.13-63.16h-74.38c21.22,21.19,41.9,41.83,63.25,63.16ZM311.29,457.9c-14.01,14.46-27.62,28.5-41.12,42.45h82.74c-13.62-13.89-27.34-27.88-41.62-42.45ZM75.65,72.02c-.03-12.55-9.66-22.11-22.26-22.08-13.07.02-23.34,9.93-23.03,22.73.3,12.13,9.82,22.67,22.72,22.49,13.46-.18,22.42-9.39,22.56-23.14ZM388,307.38c.35.16.69.32,1.04.48,3-2.8,6.06-5.53,8.98-8.41,10.38-10.24,20.7-20.55,31.08-30.79,1.59-1.57,2.52-2.82.78-5.07-2.76-3.56-4.99-7.52-7.73-11.1-3.55-4.64-7.38-9.06-11.27-13.79-1.32,1.24-2.26,2.04-3.12,2.93-5.49,5.68-10.71,11.66-16.57,16.93-2.75,2.47-3.26,4.91-3.23,8.15.1,10.2.03,20.39.02,30.59,0,3.36,0,6.72,0,10.08ZM469.7,704.23c.07-10.58-8.33-18.88-19.2-18.96-10.72-.08-19.18,8.33-19.5,18.85-.33,10.94,8.93,19.71,18.96,19.75,10.59.04,19.68-8.97,19.75-19.63ZM496.66,500.6c-12.83-12.73-24.86-24.68-36.9-36.61-1.56-1.54-2.71-1.39-3.7.73-5.19,11.13-10.47,22.23-15.69,33.35-.34.71-.46,1.53-.75,2.53h57.04ZM478.77,607.04c0-9.15-7-16.09-17.5-16.21-7.9-.09-14.76,7.54-15.11,15.82-.42,9.89,7.68,16.84,15.8,17.26,8.63.45,16.77-7.95,16.82-16.87ZM400.02,537.56c8.99-10.19,17.54-19.89,26.37-29.9h-55.65c9.78,9.99,19.18,19.58,29.28,29.9ZM192.63,378.4c.35-.49.69-.98,1.04-1.47-9.49-8.71-18.97-17.41-29.15-26.75-8.6,8.9-17.58,18.19-27.28,28.22h55.38ZM330.38,377.11c.24.42.47.85.71,1.27h41.87c.2-.37.41-.74.61-1.12-7.2-7.3-14.4-14.61-21.98-22.3-7.31,7.63-14.26,14.89-21.21,22.14ZM152.53,568.14v-34.96c-6.93,7.25-13.37,13.99-20.41,21.36,6.43,4.29,12.99,8.66,20.41,13.61ZM159.13,599.09c4.81-4.1,9.91-8.44,15.42-13.12-5.64-2.76-10.35-5.06-15.42-7.53v20.66Z"/><path class="cls-2" d="M.8,24.97c0,236.87,0,473.74,0,710.61,0,1.13.03,2.27.04,3.4-.28-1.29-.81-2.58-.81-3.87C0,499.7,0,264.29.03,28.88c0-1.3.5-2.61.77-3.91Z"/></g></svg>