<?xml version="1.0" encoding="UTF-8"?>
<svg xmlns="http://www.w3.org/2000/svg" version="1.1" viewBox="0 0 595.3 841.9">
  <defs>
    <style>
      .cls-1 {
        fill: #4c5762;
      }

      .cls-1, .cls-2, .cls-3, .cls-4, .cls-5, .cls-6, .cls-7, .cls-8, .cls-9, .cls-10, .cls-11, .cls-12 {
        stroke-width: 0px;
      }

      .cls-2 {
        fill: #07243f;
      }

      .cls-3 {
        fill: #32506c;
      }

      .cls-4 {
        fill: #001834;
      }

      .cls-5 {
        fill: #36404e;
      }

      .cls-6 {
        fill: #f5fefe;
      }

      .cls-7 {
        fill: #062440;
      }

      .cls-8 {
        fill: #a31f1f;
      }

      .cls-9 {
        fill: #06243f;
      }

      .cls-10 {
        fill: #0a1a30;
      }

      .cls-13 {
        display: none;
      }

      .cls-11 {
        fill: #041a2d;
      }

      .cls-12 {
        fill: #000511;
      }
    </style>
  </defs>
  <g id="Layer_1" data-name="Layer 1" class="cls-13">
    <g>
      <path class="cls-2" d="M16.1,40.2c3.6-10.7,9.8-19.3,20.2-24.3,1,.2,2.1.7,3.1.6,4.3-.6,8.5-2.1,12.7-2.1,164.5-.1,328.9,0,493.4,0,7.9,0,14.5,3.4,20.5,8.2,1.2,1,2.9,1.4,4.4,2.1,0,0,.2.2.2.2.2.2.4.4.5.6,0,0,0,0,0,0,.3,1.8.2,3.8,1,5.4,1.4,3.1,3.4,5.9,4.7,8.9,1.3,3,2,6.2,2.9,9.3v12.1c-.8.9-2,1.9-2,2.8,0,6.6.4,13.2.7,19.7,0,.6.8,1.1,1.2,1.6,0,4.1,0,8.1,0,12.2-1.7,2.4-1.7,9.7,0,12.1.1,2,.2,4,.3,6.1,0,3.8,0,7.6,0,11.3-.1,2.3-.2,4.5-.3,6.8-1.7,2.4-1.7,9.7,0,12.1.1,2,.2,4,.3,6.1,0,2-.2,4-.3,6.1-.7.9-1.9,1.9-1.9,2.8,0,1.1,1.2,2.1,1.8,3.2,0,2,0,4,0,6.1-.4.7-1.1,1.3-1.2,2.1-.3,6.5-.8,13-.7,19.5,0,8,.4,16,.7,24,0,.9.8,1.9,1.2,2.8,0,4.1,0,8.1,0,12.2-.4,1.1-1.2,2.1-1.2,3.2,0,30.1,0,60.3,0,90.4,0,1.1.8,2.1,1.2,3.2,0,12.1,0,24.2,0,36.3-.4,1.1-1.2,2.1-1.2,3.2,0,14,0,28,0,42.1,0,1.1.8,2.1,1.2,3.2v12.1c-1.7,2.4-1.7,9.7,0,12.1,0,4,0,8.1,0,12.1-.4,1.1-1.2,2.1-1.2,3.2,0,14,0,28,0,42.1,0,1.1.8,2.1,1.2,3.2,0,12.1,0,24.2,0,36.3-.4.7-1.1,1.3-1.2,2,0,6.7,0,13.4,0,20.1,0,.7.8,1.3,1.2,2,0,8.1,0,16.1,0,24.2-.7.9-1.9,1.9-1.8,2.8,0,1.1,1.2,2.1,1.8,3.2,0,4,0,8.1,0,12.1-.7.9-1.9,1.9-1.8,2.8,0,1.1,1.2,2.1,1.8,3.2,0,11.6,0,23.2,0,34.8-.4,1.5-1.2,3.1-1.1,4.6.1,3,.7,6,1.1,9,0,4,0,8.1,0,12.1-.4.6-1.1,1.1-1.2,1.7-.3,8.7-.6,17.4-.7,26.1,0,.8,1.2,1.6,1.9,2.4v30.3c-.7,1.1-1.9,2.2-1.9,3.2,0,9.7.6,19.3.6,29,0,6-.7,12-.6,18,0,3.4,1.2,6.8,1.8,10.3.1,1.3.2,2.5.3,3.8h-.3c-1.7.8-1.8,1.6,0,2.3-.3,5.5.1,11.1-1.1,16.4-2.9,11.8-11.2,19.2-21.7,24.3h-.2c0,0-.2,0-.2,0-.3,0-.5,0-.8.1-1.3.2-2.5.4-3.8.5-1.3-.2-2.7-.6-4-.6-92.2,0-184.4,0-276.6,0-74.1,0-148.1,0-222.2,0-2.8,0-5.6,0-8.4,0-2.2-.8-4.4-1.5-6.6-2.3-.8-.5-1.6-1-2.3-1.5-1.6-1.2-3.2-2.5-4.7-3.7-.2-.2-.5-.5-.7-.7-.8-.8-1.5-1.5-2.3-2.3-1.2-1.6-2.4-3.2-3.6-4.8,0-.2,0-.3,0-.5.1-1,.4-2,.2-2.9-.1-.6-1.1-1-1.3-1.6-1.3-4-2.4-8.1-3.6-12.2-.2-.8-.4-1.5-.7-2.3,0-1-.2-2-.2-3,.1-.2.2-.5.3-.7,2.5-1.1,2.5-1.8,0-4.5,0-.5,0-1,0-1.5.6-.4,1.2-.8,1.9-1.1-.6-.4-1.2-.8-1.9-1.1,0-1.5-.2-3-.2-4.5,0-150.5,0-301,0-451.5,0-1.5,0-3-.1-4.5,0-3.5,0-7.1,0-10.6,0-1.4.1-2.8.1-4.1,0-84,0-167.9,0-251.9,0-1.6.1-3.3.2-4.9.5-.2,1.1-.4,1.6-.6-.6-.3-1.1-.6-1.7-.9,0-.8,0-1.5,0-2.3,2.2-2.7,1.5-5.5.5-8.4,0-1,.2-1.9.3-2.9ZM42.4,67.3c-.3,1.3-.8,2.6-.8,3.9,0,235.4,0,470.8,0,706.2,0,1.3.5,2.6.8,3.9.2.4.5.9.6,1.3,2.8,13.7,13.7,24.7,31.2,24.7,149.9-.4,299.7-.3,449.6,0,14.4,0,28.4-13.2,28.4-28.2-.1-236.5,0-472.9-.1-709.4,0-1.7,0-3.5-.4-5.2-3.1-13.1-14.5-22-28.3-22-82.3,0-164.6,0-246.9,0-68.9,0-137.9,0-206.8,0-6,0-11.3,1.9-16,5.7-6.1,5.1-9.3,11.7-11.2,19.2Z"/>
      <path class="cls-5" d="M570.5,24.5c-1.5-.7-3.2-1.1-4.4-2.1-6-4.8-12.6-8.2-20.5-8.2-164.5,0-328.9,0-493.4,0-4.2,0-8.5,1.5-12.7,2.1-1,.1-2.1-.3-3.1-.6,4.7-1,9.5-2.8,14.2-2.8,164.2-.1,328.4,0,492.6-.2,11,0,20.3,2.9,27.4,11.6Z"/>
      <path class="cls-5" d="M577.9,35.6c.5,1,.9,2,1.4,3.1.2,2.8.5,5.5.7,8.3,0,.8.1,1.5.2,2.3h-.3c-.9-3.2-1.6-6.4-2.9-9.4-1.3-3.1-3.4-5.9-4.7-8.9-.7-1.6-.7-3.6-1-5.4,2.2,3.4,4.4,6.7,6.6,10.1Z"/>
      <path class="cls-5" d="M571.2,25.4c-.2-.2-.4-.4-.5-.6.2.2.4.4.5.6Z"/>
      <path class="cls-3" d="M42.4,67.3c1.9-7.5,5.2-14.1,11.2-19.2,4.6-3.9,10-5.7,16-5.7,68.9,0,137.9,0,206.8,0,82.3,0,164.6,0,246.9,0,13.8,0,25.3,8.9,28.3,22,.4,1.7.4,3.5.4,5.2,0,236.5,0,472.9.1,709.4,0,15.1-14,28.2-28.4,28.2-149.9-.2-299.7-.3-449.6,0-17.5,0-28.4-10.9-31.2-24.7,0-.5-.4-.9-.6-1.3,0-1.1,0-2.3,0-3.4,0-236.9,0-473.7,0-710.6ZM434.1,693.3c0,35.1,0,69.9,0,104.7,0,2.7,1.6,3,3.7,3,28.4,0,56.7.1,85.1,0,14.1,0,23.2-9.6,23.2-23.7,0-74.2,0-148.5,0-222.7,0-3.5-.8-4.7-4.6-4.7-20.5.2-41.1.2-61.6,0-3.5,0-5.3,1.5-7.3,4-7.4,9-14.9,18-22.6,26.7-3.6,4-3.8,4.2-.3,7.8,12.3,12.4,24.6,24.8,36.9,37.3,2.8,2.8,4.7,4.7,9.9,2.8,14.6-5.3,30.1,5.4,29.9,21-.2,15.6-11.7,26.3-27.8,22.9-17.2-3.6-20.5-22.8-14.2-33.6.8-1.4,1.7-2.6,2.4-3.7-2.2-2.5-4.1-4.7-6.1-6.8-11.9-12-23.8-23.9-35.8-35.8-3.7-3.7-3.8-3.8-7.4-.4-15.5,14.6-33.7,24.9-52.8,33.8-1.7.8-3.5,1.6-5.5,2.6,1,1.2,1.5,1.9,2.1,2.5,9.5,9.7,19,19.5,28.5,29.1,2.6,2.6,5.3,5,7.9,7.5,7.5,7.2,15.2,14.3,22.6,21.7,11.7,11.8,23.1,23.8,34.8,35.6.6.6,2.6.8,3.4.3,4.5-2.6,9.3-3.6,14.5-3.5,10.9.2,18.2,5.7,22.7,15.3,3.9,8.4,1.5,20.4-4.9,27.1-6.5,6.9-18,11-29,6.2-9.2-4-15.8-14.4-15.5-22.6.2-6.4,2.2-11.7,5.3-16.6-12.5-12.5-24.9-24.9-37.6-37.6ZM541.2,57.9c-53.6,54.6-107.1,109-160.6,163.3,4.6,2.2,10.1,5,15.8,7.2,3.4,1.3,7.2,2.2,10.9,2.2,29.4.2,58.7,0,88.1,0,1.4,0,2.9-.1,4.5-.2,0-1.9,0-3.2,0-4.6,0-22.4,0-44.9,0-67.3,0-5.2,1.3-6.5,6.4-6.5,12,0,23.9,0,35.9,0,2.9,0,3.9-.7,3.9-3.8-.1-26.3,0-52.7,0-79,0-4.2-1.6-7.7-4.9-11.5ZM282.5,204.3c-1.1-1.5-1.5-2.3-2.1-2.8-17.8-17.8-35.7-35.7-53.6-53.5-8.9-8.8-18-17.5-26.9-26.3-2.5-2.5-5.2-3.6-8.7-3.6-13.1,0-26.2,0-39.3,0q-5.2,0-5.2,5.2c0,34.6,0,69.2,0,103.8,0,2.6.5,5.2.5,7.9,0,10.3,0,20.7,0,32.2,37.9-37,82.5-58.1,135.2-62.8ZM293.9,794.2c.4-5.7.9-10.6,1-15.5,0-43.6,0-87.2.1-130.7,0-3.2-.9-4.2-4.3-4.4-9.5-.5-19.1-.8-28.4-2.6-12.3-2.3-24.3-6.1-36.5-9-1.5-.4-3.8-.2-4.8.7-3.7,3.2-7,6.8-10.5,10.2-6,5.9-12.1,11.7-18,17.7-5.4,5.4-10.7,10.9-15.1,15.4,38.7,39.3,77.4,78.6,116.5,118.3ZM293.9,203.9c.4-3.2.9-5.4.9-7.6-.2-48.1-.4-96.2-.6-144.3,0-2.9-.9-3.6-3.7-3.6-28.7,0-57.4,0-86.2,0-2.9,0-4,.8-4,3.9.1,17.5,0,35,.1,52.5,0,4.7.6,9.1,4.8,12.8,6.7,5.8,12.7,12.4,19,18.7,21.8,21.6,43.6,43.2,65.4,64.7,1,1,2.3,1.7,4.1,3ZM357.8,495.5c.5.7.8,1.1,1.1,1.5,14.8,14.8,29.6,29.6,44.5,44.3,1.1,1.1,3.3,1.7,5,1.7,20,.1,40.1,0,60.1.2,3.1,0,4.8-1,6.4-3.5,7.7-12.3,13.7-25.5,18.3-39.2.3-.9-.2-2.4-.9-3.2-3.6-4-7.3-8-11.1-11.8-11.4-11.3-22.8-22.5-34.2-33.7-6.8-6.7-13.6-13.5-20.3-20.3-1.9-2-3.4-2.2-5.2,0-2.3,2.7-4.6,5.3-7.1,7.8-9.8,9.8-19.6,19.6-29.4,29.4-9,9-18,17.9-27.1,26.9ZM365,689h0c-19.9,0-39.8.1-59.7,0-3.3,0-4.4,1-4.3,4.3.1,14.4.2,28.7,0,43.1,0,3.5,1.1,4.2,4.3,4.1,22.2-.1,44.3,0,66.5,0,10.2,0,10.2,0,10.3,10.2.1,15.6.4,31.2.6,46.8,0,1.6-.4,3.5,2.2,3.4,13-.2,25.9-.5,38.9-.5,4,0,4.4-1.9,4.4-5.2,0-34,0-68,0-102,0-3.3-.8-4.3-4.2-4.3-19.6.2-39.3,0-59,0ZM348.2,109.6c-14.4,0-28.7.1-43.1,0-3.4,0-4.2,1-4.2,4.3.1,28.6.1,57.2,0,85.8,0,3.4,1,4.4,4.4,4.7,10.4.9,20.8,1.7,31,3.7,10.4,2.1,20.6,5.4,30.8,8.4,2.7.8,4.8,1.1,7.1-1.3,6.2-6.4,12.8-12.5,19-18.9,1.2-1.3,2.1-3.5,2.1-5.2.1-25.8,0-51.7.2-77.5,0-3-.9-3.9-3.9-3.8-14.5.1-29,0-43.5,0ZM266.1,777.2c-31.4-31.6-62.9-63.2-94.7-95.1-31.7,31.4-63.5,62.9-95.2,94.3l.7.8h189.2ZM215.9,287.4h0c-24.7,0-49.4,0-74.1,0-2.8,0-4.9.6-6.6,2.8-2.3,3-4.6,5.9-7.2,8.7-2.4,2.6-1.9,4.6.8,6.5,1.3.9,2.5,2,3.7,3.2,23.5,23.5,47,47,70.5,70.5,3.7,3.7,3.7,3.7,7.3,0,23.5-23.5,47.1-47,70.6-70.5,3.8-3.8,7.6-7.7,11.5-11.5,2.6-2.5,1.8-5.7,1.3-8.5-.1-.7-3.2-1.1-4.9-1.1-24.3,0-48.6,0-73,0ZM203.2,458.4c-.6.5-1.3,1-1.9,1.5-.3,3.7-.7,7.5-.8,11.2,0,29.6,0,59.2,0,88.8,0,4.6.6,9.3.5,13.9,0,11.9-.4,23.9-.5,35.8,0,1.4,1,3.3,2.1,4,4.8,2.8,9.8,5.2,14.7,7.8,2.4,1.3,4.2.9,6.2-1.2,10.6-10.8,21.3-21.4,32-32.1,11.5-11.5,22.9-23,34.4-34.5,1.9-1.9,2.7-3.4.5-5.7-17.1-17-34.2-33.9-51.1-51.1-12.3-12.6-24.1-25.7-36.2-38.5ZM545.9,237.5c-3.5-.3-6.5-.6-9.5-.7-8.8,0-17.6.1-26.5-.1-3.5-.1-4.2,1.1-4.1,4.3.2,13.5.1,27,0,40.4,0,1.8-.3,4.1-1.4,5.3-6.2,6.6-12.5,13.1-19,19.3-3.3,3.2-3.6,4.1-1.4,8.3,2.8,5.3,5.6,10.7,8.1,16.2,8.1,18.2,14.5,36.9,17,56.8,1.2,9.9,2.5,19.9,3.5,29.8.2,2.6.9,3.5,3.5,3.4,8.4-.1,16.9-.2,25.3,0,3.7.1,4.6-1.1,4.6-4.7,0-58.5,0-116.9,0-175.4,0-1.1-.1-2.2-.2-3.2ZM122.5,307.6c-1.2,1.6-1.6,2.2-2,2.8-8.2,14.6-15.3,29.7-20.5,45.6-6.6,19.8-10.3,40-10.1,61,0,3.1,1.1,3.8,3.9,3.8,24.1,0,48.1,0,72.2-.2,1.8,0,3.9-1,5.2-2.2,8.2-8,16.2-16.2,24.4-24.2,2.2-2.1,5-3.7,6.6-4.9-27.2-27.9-53.2-54.5-79.7-81.6ZM163.9,596.6c-21.2-16.5-37.4-36.6-51.7-60.3-1.5,2.2-2.3,3.7-3.4,4.8-18.9,18.9-37.7,37.8-56.7,56.6-2.3,2.3-3.1,4.4-3.1,7.5.1,13.2.2,26.5,0,39.7,0,3.1.8,4.1,4,4.1,18.1-.1,36.3-.1,54.4,0,2.9,0,4.9-.9,6.9-2.9,11.7-11.6,23.5-23,35.2-34.6,4.7-4.7,9.2-9.5,14.3-14.9ZM49.4,233.9c-.2,1.8-.3,2.3-.3,2.9,0,60,0,119.9,0,179.9,0,3,1.2,3.9,4,3.9,9.2,0,18.4.2,27.6.1.8,0,2.1-1.5,2.2-2.5.7-8.6.7-17.3,2-25.8,3.2-22.1,9.7-43.3,19.3-63.6,3.7-8,8-15.7,12.1-23.5.9-1.7,1.4-3.1-.4-4.7-3.3-2.9-6.4-6-9.5-9.1-10.9-10.9-21.8-21.9-32.6-32.9-7.9-8-15.7-16.1-24.3-24.8ZM220.4,280.6h0c23.3,0,46.6,0,69.9,0,2.8,0,4.6-.5,4.6-3.8,0-20.7,0-41.3,0-62,0-2.8-1.1-3.9-4.1-4-11.6-.4-23.1,1.2-34.4,3.5-14.5,2.9-28.3,7.9-41.8,13.6-13.7,5.9-26.7,13.1-38.4,22.3-9.8,7.6-18.5,16.6-27.6,25-1,1-1.4,2.6-2.1,3.9,1.5.4,2.9,1.2,4.4,1.2,23.2,0,46.4,0,69.5,0ZM476.9,314.7c-26.6,26.3-52.6,51.9-78.8,77.8,4.8,5,9.1,9.6,13.5,14,3.4,3.4,7,6.5,10.2,10,2.8,2.9,5.5,5.3,10,4.7,3.9-.5,7.8-.6,11.7-.6,19.7,0,39.3,0,59,0,1.3,0,2.6-.1,3.9-.2-.4-37.9-11-72.4-29.3-105.7ZM293.9,542.5c.4-4.5.9-8,.9-11.6,0-32.9,0-65.8,0-98.6,0-5,0-5-5.1-5-35.4,0-70.8,0-106.2,0-1.3,0-2.6,0-3.8,0,38.1,38.4,75.8,76.6,114.1,115.2ZM301,542.5c38.9-38.6,77.1-76.5,115.9-115-1.5-.1-2.1-.2-2.7-.2-36.7,0-73.3,0-110,0-3.2,0-3.4,1.4-3.3,3.9,0,23.2,0,46.4,0,69.5,0,13.6,0,27.2,0,41.8ZM140.7,118c-4.5,0-8.4.2-12.3,0-3.3-.2-4.9.8-5.9,4.1-3.5,10.7-10.4,18.2-21.6,21.1-2.2.6-2.6,1.8-2.6,3.8,0,41.6,0,83.2,0,124.8,0,1.2.3,2.6,1.1,3.4,6.7,6.9,13.5,13.6,20.4,20.3.5.5,2.7.3,3.2-.3,4.9-5.6,9.7-11.2,14.3-17,1.6-2,3.2-4.8,3.2-7.2.2-49.4.1-98.8.1-148.2,0-1.4,0-2.7,0-4.7ZM53.2,790.2c.8-.7,1.5-1.2,2.1-1.9,6-6.1,11.9-12.3,18-18.3,11.4-11.4,22.9-22.6,34.2-34,1.2-1.2,2.1-3.2,2.1-4.9.1-23.9,0-47.9.2-71.8,0-3.4-1.4-4.4-4.5-4.4-17.6,0-35.3,0-52.9,0-2.4,0-3.3.7-3.3,3.2,0,40.6,0,81.2.1,121.7,0,3.8,1,7.4,4.1,10.3ZM49.3,590.4c.9-.6,1.6-.8,2.1-1.3,6.9-6.8,13.7-13.6,20.5-20.5,11.5-11.6,23-23.2,34.7-34.7,2.4-2.3,2.6-4,1.2-6.9-3-6.2-6.1-12.4-8.5-18.9-9.4-24.9-15.5-50.6-16.1-77.4,0-2.6-1.1-3.5-3.6-3.5-7.7.1-15.4,0-23.1,0-2.3,0-4.7,0-7.2,0v163.1ZM365,298.8h0c19.3,0,38.5,0,57.8,0,1.2,0,2.8,0,3.5-.7,6.5-6.5,12.9-13.1,19.3-19.6,1.5-1.6,1.2-2.9-.3-4.4-9.5-9.8-19.2-19.2-31-26.2-12.1-7.1-24.5-13.8-36.7-20.8-2.2-1.3-3.8-.8-5.6,1-9.7,9.6-19.6,19.1-29.3,28.7-12.3,12.2-24.6,24.5-36.8,36.9-1,1.1-1.6,2.6-2.4,3.9,1.5.4,3,1.2,4.5,1.2,19,0,38,0,57,0ZM113.8,525.8c8.1-8.1,15.2-15.3,22.4-22.5,10.6-10.6,21.2-21.2,31.9-31.9,6.4-6.4,12.8-12.8,19.1-19.2,3.4-3.4,3.4-3.5-.2-7-5-5-10.2-9.8-14.9-15-2.1-2.3-4.2-3-7.2-3-22.7.1-45.4,0-68,0-7.1,0-7.3,0-6.9,6.9.4,8.1.5,16.4,2.1,24.3,2.5,12.5,5.6,25,9.4,37.1,3.2,10,7.8,19.5,12.2,30.2ZM194.3,455.4c-.3-.2-.6-.3-.8-.5-3.2,3.5-6.3,7.1-9.6,10.4-16.2,16.3-32.5,32.5-48.8,48.8-5.2,5.2-10.4,10.3-15.4,15.6-.8.9-1.4,2.7-1.1,3.8.5,1.8,1.6,3.4,2.7,4.9,6.9,9.6,13.2,19.6,20.9,28.5,7.2,8.3,15.7,15.5,23.7,23.2,1.7,1.7,3.1,1.4,4.8-.3,6.8-6.7,13.7-13.4,20.6-19.9,2.2-2.1,3.1-4.2,3.1-7.2-.1-20.7,0-41.3,0-62,0-15.1,0-30.2,0-45.3ZM301.2,306.3c0,.5-.1.8-.1,1.2,0,36.6,0,73.1,0,109.7,0,3,1.2,3.5,3.8,3.5,17.5,0,35,0,52.6,0,2.8,0,4.7-.9,6.6-2.8,6.7-6.8,13.5-13.6,20.3-20.3,4.6-4.5,4.7-4.4,0-8.9-8.9-8.7-17.9-17.3-26.7-26.1-7.9-7.9-15.5-16.1-23.5-24-10.9-10.8-21.9-21.4-33-32.2ZM294.9,304.9c-1.6,1.4-2.4,2-3.1,2.7-25.1,25.1-50.3,50.2-75.4,75.4-5,5-4.9,5.9.6,10.4.2.2.4.3.6.5,7.9,7.9,15.9,15.8,23.7,23.7,1.9,1.9,3.7,3,6.5,3,12.2,0,24.3.2,36.5.3,10,.1,10.6-.5,10.6-10.7,0-33.4,0-66.8,0-100.2,0-1.3,0-2.7,0-5.2ZM301,550.1c1.2,1.5,1.7,2.2,2.2,2.8,7.6,7.5,15.3,14.9,22.8,22.5,15.1,15,30.2,30.1,45.1,45.2,1.9,2,3.4,2.5,6.1,1.3,18.8-8.3,36.5-18.5,52.4-31.8,2.3-2,4.6-4.1,6.9-6.2-9.4-9.4-18.6-18.2-27.2-27.5-4.6-4.9-9.3-6.9-16.3-6.8-28.5.5-57,.2-85.4.2-1.8,0-3.7.2-6.6.3ZM394.3,387.1c-.8.3-.5.3-.4.1,9.3-9.4,18.7-18.7,27.8-28.2,1.1-1.1,1.6-3.1,1.7-4.7.1-14.7,0-29.5.2-44.2,0-3.6-1-4.7-4.6-4.6-34.7.1-69.3.1-104,.1-.9,0-1.8.1-3.4.2,27.8,27.3,55.1,54.1,82.7,81.3ZM115.7,727.1c2.2-1.8,3.8-3,5.2-4.3,12.2-12.1,24.3-24.2,36.4-36.3,11.1-11.1,22.3-22.1,33.2-33.4,1.8-1.8,3.5-4.6,3.6-7,.4-8.5.3-17.1,0-25.7,0-1.4-1.1-3.4-2.3-4.2-7.6-5.1-15.4-9.9-23.2-14.9-15.5,15.6-31.3,31.3-46.9,47.3-2.2,2.3-6.1,3.4-6.1,7.5,0,23.3,0,46.6,0,71.1ZM348.2,103.6c14.6,0,29.2,0,43.8,0,2.6,0,3.5-.7,3.5-3.4-.1-16-.1-32,0-48,0-3-1-3.9-3.9-3.9-29.1,0-58.2,0-87.3,0-2.7,0-3.4.9-3.4,3.5,0,16,.1,32,0,48,0,3,.8,3.9,3.8,3.8,14.5-.1,29,0,43.4,0ZM90.4,267.8c.5-.4,1.1-.8,1.6-1.3,0-1,.2-1.9.2-2.9,0-28.5,0-56.9,0-85.4,0-10.8-.1-21.6-.4-32.4,0-.7-1.4-1.9-2.3-2.1-12.4-3.2-20-10.9-23.1-23.3-.2-.9-1.3-2.2-2.1-2.2-5-.2-10-.1-14.8-.1-.2,1-.3,1.3-.3,1.7,0,34.4,0,68.8,0,103.2,0,1.4,1,3.1,2,4.1,10.9,11,21.9,21.9,32.7,32.9,2.4,2.4,4.3,5.2,6.4,7.8ZM104,48.4c-11.1,0-22.2.2-33.3,0-12.5-.3-21.4,11.7-21.5,19.8-.2,13.5,0,27,0,40.5,0,2.5,1,3.4,3.4,3.3,3.3-.1,6.6-.2,9.8,0,2.6.2,3.4-1,4.2-3.2,1.4-3.7,2.6-7.7,4.9-10.8,8.4-11.6,21.4-14.9,34.4-10,9.2,3.4,14.3,10.7,16.6,20,.5,2,.9,4,3.7,3.9,3.7,0,7.3,0,11-.1,2.5,0,3.7-1.2,3.7-4-.1-18.7-.1-37.3,0-56,0-2.7-.9-3.5-3.5-3.4-11.1.1-22.2,0-33.3,0ZM423.6,683.7c.2-.3.3-.7.5-1-2.4-2.2-4.8-4.3-7.1-6.6-8.6-8.6-17.3-17.2-25.8-25.8-5.6-5.7-11.2-11.5-16.7-17.4-1.4-1.5-2.7-2.3-4.9-1.4-4,1.5-8.1,2.8-12.2,3.9-17.6,4.7-35.4,8.3-53.8,8.4-.9,0-2.5,1.4-2.5,2.2-.2,11.6-.1,23.2,0,34.8,0,.8,1.3,2.1,2.1,2.2,3.6.4,7.3.7,10.9.7,33,0,66.1,0,99.1,0,3.5,0,7,0,10.4,0ZM338,746.6c-11.1,0-22.2,0-33.2,0-3,0-3.9.8-3.9,3.8.1,15.5.1,31,0,46.5,0,3.1.8,4.2,4.1,4.2,22.3-.1,44.6-.1,66.9,0,3.2,0,4.1-1.1,4.1-4.2-.1-15.2-.2-30.5,0-45.7,0-3.6-1.4-4.6-4.7-4.5-11.1.1-22.2,0-33.2,0ZM455.3,133.2c.4.2.8.4,1.1.6,26.8-26.7,53.6-53.5,80.6-80.4-3.4-3.6-8.2-4.9-13.5-4.9-21.3,0-42.6,0-63.9-.1-3.5,0-4.4.9-4.4,4.4.1,25.7,0,51.4,0,77.1,0,1.1,0,2.2,0,3.3ZM289.1,800.4c.1-.4.2-.8.3-1.2-3.5-3.4-7.3-6.6-10.6-10.2-3.2-3.6-6.6-4.9-11.6-4.9-64.6.2-129.3.2-193.9.2-1.7,0-3.9-.1-5.1.8-3.9,3.2-7.4,6.9-11.2,10.5,5.1,5,11,5.3,16.7,5.3,70.2,0,140.4,0,210.6,0,1.6,0,3.1-.3,4.7-.5ZM545.5,540.7c.3-.7.5-1.1.5-1.4,0-36.4,0-72.8,0-109.2,0-2.2-.9-2.8-2.9-2.8-9.2,0-18.4,0-27.6,0-2.1,0-2.8.8-2.9,2.9-.1,4.8-.3,9.5-.8,14.3-1.5,15.9-4.6,31.5-9.5,46.7-1.1,3.5-1,6.4,2.3,8.9,2.9,2.2,5.5,4.8,8,7.4,10.8,11,21.6,22,32.7,33.3ZM409.7,237c28,17.6,50.4,39.9,68.3,66.6.9-.6,1.4-.8,1.8-1.1,6.2-6.2,12.5-12.3,18.5-18.7,1.1-1.2,1.5-3.4,1.5-5.2.1-12.5,0-24.9,0-37.4,0-1.3-.1-2.7-.2-4.2h-90ZM194.4,79.9c0-9.2-.1-18.4,0-27.6,0-3.2-1.1-4-4.1-4-13,.1-25.9.2-38.9,0-3.9,0-4.9,1.4-4.7,4.9.3,6.1.6,12.3.6,18.4,0,12.3-.3,24.6-.6,36.9,0,2.4.9,3.4,3.3,3.4,13.5,0,26.9,0,40.4,0,2.9,0,4-1.2,3.9-4.1-.1-9.3,0-18.6,0-27.9ZM545.8,158.2c-12.7,0-24.9,0-37.1,0-2.8,0-2.8,1.8-2.8,3.8,0,21.8,0,43.6,0,65.4,0,2.7.9,3.4,3.5,3.4,10.8-.1,21.7-.2,32.5,0,3.3,0,4.3-.8,4.3-4.2-.1-21.5,0-43.1,0-64.6,0-1.1-.1-2.2-.2-3.8ZM294.9,560c-22.1,22-44.2,44-66.5,66.1-.2-.3-.1,0,0,0,.8.4,1.6.7,2.4,1,19.2,6.3,38.9,9.7,59.1,10.4,4.8.2,4.8,0,4.8-4.8,0-23.3,0-46.6,0-70,0-1.1,0-2.2,0-2.8ZM366.8,626.5c-22.3-22.3-44-44-65.7-65.7,0,.5,0,1.3,0,2.1,0,23.5,0,47.1,0,70.6,0,3.4,1,4.2,4.3,4.2,12.4.2,24.5-1.8,36.5-4.6,8.4-1.9,16.6-4.4,25.1-6.7ZM365.9,222.7c-19.7-7.3-39.9-11.3-60.8-11.8-3.5,0-4.2,1.1-4.2,4.3.1,23.2,0,46.4,0,69.6,0,.9,0,1.9.1,2.7,21.6-21.6,43-43,64.7-64.7ZM401.6,188c1.5-1.7,2.3-2.9,3.4-4,13.8-13.4,27.7-26.8,41.4-40.3,1.2-1.2,2-3.2,2.1-4.9.2-8.6,0-17.1.2-25.7,0-2.9-.9-3.6-3.7-3.6-13.2.1-26.4.2-39.7,0-3.2,0-3.7,1.1-3.7,4,.1,16.4,0,32.7,0,49.1,0,8.3,0,16.6,0,25.4ZM448.2,103.4c.1-1,.3-1.6.3-2.2,0-16.6,0-33.2,0-49.9,0-2.8-1.3-3-3.5-3-13.3,0-26.7.1-40,0-3,0-3.5,1.1-3.5,3.8.1,16,0,32,0,48,0,1.1.2,2.2.3,3.4h46.3ZM495.7,490.7c8.4-21.3,9.9-42.1,11.1-63.2h-74.4c21.2,21.2,41.9,41.8,63.3,63.2ZM352.9,500.2c-14,14.5-27.6,28.5-41.1,42.4h82.7c-13.6-13.9-27.3-27.9-41.6-42.4ZM117.2,114.3c0-12.5-9.7-22.1-22.3-22.1-13.1,0-23.3,9.9-23,22.7.3,12.1,9.8,22.7,22.7,22.5,13.5-.2,22.4-9.4,22.6-23.1ZM429.6,349.7c.3.2.7.3,1,.5,3-2.8,6.1-5.5,9-8.4,10.4-10.2,20.7-20.6,31.1-30.8,1.6-1.6,2.5-2.8.8-5.1-2.8-3.6-5-7.5-7.7-11.1-3.6-4.6-7.4-9.1-11.3-13.8-1.3,1.2-2.3,2-3.1,2.9-5.5,5.7-10.7,11.7-16.6,16.9-2.7,2.5-3.3,4.9-3.2,8.2,0,10.2,0,20.4,0,30.6,0,3.4,0,6.7,0,10.1ZM511.3,746.5c0-10.6-8.3-18.9-19.2-19-10.7,0-19.2,8.3-19.5,18.8-.3,10.9,8.9,19.7,19,19.7,10.6,0,19.7-9,19.7-19.6ZM538.2,542.9c-12.8-12.7-24.9-24.7-36.9-36.6-1.6-1.5-2.7-1.4-3.7.7-5.2,11.1-10.5,22.2-15.7,33.3-.3.7-.5,1.5-.7,2.5h57ZM520.3,649.3c0-9.1-7-16.1-17.5-16.2-7.9,0-14.8,7.5-15.1,15.8-.4,9.9,7.7,16.8,15.8,17.3,8.6.4,16.8-7.9,16.8-16.9ZM441.6,579.9c9-10.2,17.5-19.9,26.4-29.9h-55.6c9.8,10,19.2,19.6,29.3,29.9ZM234.2,420.7c.3-.5.7-1,1-1.5-9.5-8.7-19-17.4-29.1-26.8-8.6,8.9-17.6,18.2-27.3,28.2h55.4ZM372,419.4c.2.4.5.8.7,1.3h41.9c.2-.4.4-.7.6-1.1-7.2-7.3-14.4-14.6-22-22.3-7.3,7.6-14.3,14.9-21.2,22.1ZM194.1,610.5v-35c-6.9,7.3-13.4,14-20.4,21.4,6.4,4.3,13,8.7,20.4,13.6ZM200.7,641.4c4.8-4.1,9.9-8.4,15.4-13.1-5.6-2.8-10.4-5.1-15.4-7.5v20.7Z"/>
      <path class="cls-4" d="M42.4,67.3c0,236.9,0,473.7,0,710.6,0,1.1,0,2.3,0,3.4-.3-1.3-.8-2.6-.8-3.9,0-235.4,0-470.8,0-706.2,0-1.3.5-2.6.8-3.9Z"/>
      <path class="cls-12" d="M552.1,834.8l-2.3.4c-30.2,0-60.5,0-90.7,0-137.9,0-275.8,0-413.8,0-1.5-.4-3-.7-4.5-1.1,2.8,0,5.6,0,8.4,0,74.1,0,148.1,0,222.2,0,92.2,0,184.4,0,276.6,0,1.3,0,2.7.4,4,.6Z"/>
      <path class="cls-6" d="M15,796.4c-.2-1.3-.6-2.7-.6-4,0-153.9,0-307.8,0-461.7,0-1.3.5-2.6.7-3.9,0,1.5.1,3,.1,4.5,0,150.5,0,301,0,451.5,0,1.5.1,3,.2,4.5,0,.8,0,1.5,0,2.3,0,.5,0,1,0,1.5,0,1.5,0,3,0,4.5-.1.2-.2.5-.3.7Z"/>
      <path class="cls-6" d="M15.1,316.1c-.2-1.3-.7-2.6-.7-3.9,0-86.4,0-172.7,0-259.1,0-1.3.4-2.6.7-4,.1.8.2,1.5.3,2.3,0,.8,0,1.5,0,2.3,0,.5,0,1,0,1.5,0,1.6-.2,3.3-.2,4.9,0,84,0,167.9,0,251.9,0,1.4,0,2.8-.1,4.1Z"/>
      <path class="cls-10" d="M580.1,321.4c0,2-.2,4-.3,6-.4-1.1-1.2-2.1-1.2-3.2,0-30.1,0-60.3,0-90.4,0-1.1.8-2.1,1.2-3.2,0,0,.3,0,.3,0,0,2,0,4,0,6.1,0,4.8-.2,9.5-.2,14.3,0,23.5,0,46.9.1,70.4Z"/>
      <path class="cls-10" d="M580.1,750.3c0,12.4-.2,24.7-.3,37.1-.6-3.4-1.8-6.8-1.8-10.3-.1-6,.6-12,.6-18,0-9.7-.5-19.3-.6-29,0-1.1,1.2-2.1,1.9-3.2,0,6.3.2,12.6.3,18.9,0,1.5,0,3,0,4.5Z"/>
      <path class="cls-10" d="M579.8,170.2c0,16.1,0,32.3,0,48.4-.4-.9-1.1-1.9-1.2-2.8-.3-8-.7-16-.7-24,0-6.5.4-13,.7-19.5,0-.7.8-1.4,1.2-2.1Z"/>
      <path class="cls-10" d="M579.8,448.5c0,16.1,0,32.3,0,48.4-.4-1.1-1.2-2.1-1.2-3.2,0-14,0-28,0-42.1,0-1.1.8-2.1,1.2-3.2Z"/>
      <path class="cls-10" d="M579.8,363.8c0,16.1,0,32.3,0,48.4-.4-1.1-1.2-2.1-1.2-3.2,0-14,0-28,0-42.1,0-1.1.8-2.1,1.2-3.2Z"/>
      <path class="cls-10" d="M579.8,666.3c0,10.1,0,20.2,0,30.2-.7-.8-1.9-1.6-1.9-2.4.1-8.7.4-17.4.7-26.1,0-.6.8-1.1,1.2-1.7Z"/>
      <path class="cls-10" d="M579.8,61.3c0,2.5.2,5,.3,7.6,0,1.8,0,3.5,0,5.3v3.8c0,2.5,0,5,0,7.6,0,0-.3,0-.3,0-.4-.5-1.1-1.1-1.2-1.6-.3-6.6-.6-13.1-.7-19.7,0-.9,1.2-1.9,1.9-2.8Z"/>
      <path class="cls-10" d="M579.8,533.2c0,8.1,0,16.1,0,24.2-.4-.7-1.2-1.3-1.2-2,0-6.7,0-13.4,0-20.1,0-.7.8-1.3,1.2-2Z"/>
      <path class="cls-11" d="M15.7,806.2c-.1-1.5-.2-3-.3-4.4,0,0,.3,0,.3,0h.3c1.2,4,2.4,8,3.6,12.1.2.6,1.2,1,1.3,1.6.2.9-.1,1.9-.2,2.9-.3-.3-.6-.5-.9-.8-1.2-3-2.5-6-3.7-9.1,0-.7-.2-1.5-.2-2.2Z"/>
      <path class="cls-10" d="M579.8,640.6c0,4.5,0,9.1,0,13.6-.4-3-1-6-1.1-9,0-1.5.7-3,1.1-4.6Z"/>
      <path class="cls-10" d="M579.8,97.6v12.1c-1.7-2.4-1.7-9.7,0-12.1Z"/>
      <path class="cls-10" d="M579.8,424.3c0,4,0,8.1,0,12.1-1.7-2.4-1.7-9.7,0-12.1Z"/>
      <path class="cls-10" d="M579.8,133.9c0,2,.2,4,.3,6,0,2-.2,4-.3,6-1.7-2.4-1.7-9.7,0-12.1Z"/>
      <path class="cls-10" d="M579.8,599.8c0,2,0,4,0,6-.7-1.1-1.8-2.1-1.8-3.2,0-.9,1.2-1.9,1.8-2.8Z"/>
      <path class="cls-10" d="M579.8,581.6v6c-.7-1.1-1.8-2.1-1.8-3.2,0-.9,1.2-1.9,1.8-2.8Z"/>
      <path class="cls-10" d="M579.8,158.1c0,1.8.2,3.5.3,5.3-.1.2-.2.5-.3.7-.7-1.1-1.8-2.1-1.8-3.2,0-.9,1.2-1.9,1.9-2.8Z"/>
      <path class="cls-11" d="M15.4,51.4c-.1-.8-.2-1.5-.3-2.3h.2c0-.7,0-1.5,0-2.3.2-1.3.3-2.5.5-3.8,1,2.8,1.8,5.7-.5,8.4Z"/>
      <path class="cls-11" d="M15.3,795.7c0-1.5,0-3,0-4.5,2.4,2.8,2.4,3.4,0,4.5Z"/>
      <path class="cls-11" d="M15.4,789.6c0-.8,0-1.5,0-2.3.6.4,1.2.8,1.9,1.1-.6.4-1.2.8-1.9,1.1Z"/>
      <path class="cls-10" d="M579.8,791.1c0,.8,0,1.5,0,2.3-1.9-.7-1.8-1.5,0-2.3Z"/>
      <path class="cls-11" d="M15.4,55.2c0-.5,0-1,0-1.5.6.3,1.1.6,1.7.9-.5.2-1.1.4-1.6.6Z"/>
      <path class="cls-1" d="M15.9,801.7h-.3c0,.1-.3,0-.3,0,0-.8,0-1.6-.1-2.4.2.8.4,1.5.7,2.3Z"/>
      <path class="cls-1" d="M15.3,46.9c0,.8,0,1.6,0,2.4,0-.8,0-1.6,0-2.4Z"/>
      <path class="cls-7" d="M434.1,693.3c12.7,12.7,25.1,25,37.6,37.6-3.1,4.9-5.2,10.3-5.3,16.6-.2,8.2,6.4,18.6,15.5,22.6,11,4.8,22.5.7,29-6.2,6.4-6.8,8.7-18.7,4.9-27.1-4.4-9.6-11.7-15.1-22.7-15.3-5.2,0-9.9.9-14.5,3.5-.8.5-2.8.3-3.4-.3-11.7-11.8-23.1-23.9-34.8-35.6-7.3-7.4-15-14.5-22.6-21.7-2.6-2.5-5.4-4.9-7.9-7.5-9.5-9.7-19-19.4-28.5-29.1-.6-.6-1.1-1.3-2.1-2.5,2-1,3.8-1.8,5.5-2.6,19.1-8.8,37.3-19.2,52.8-33.8,3.6-3.4,3.8-3.3,7.4.4,11.9,11.9,23.9,23.8,35.8,35.8,2,2,3.9,4.3,6.1,6.8-.7,1.1-1.6,2.4-2.4,3.7-6.3,10.7-2.9,30,14.2,33.6,16.2,3.4,27.7-7.3,27.8-22.9.2-15.6-15.3-26.3-29.9-21-5.2,1.9-7.2,0-9.9-2.8-12.3-12.4-24.6-24.8-36.9-37.3-3.5-3.6-3.2-3.8.3-7.8,7.7-8.7,15.2-17.7,22.6-26.7,2-2.5,3.8-4,7.3-4,20.5.2,41.1.2,61.6,0,3.7,0,4.6,1.2,4.6,4.7,0,74.2,0,148.5,0,222.7,0,14.1-9.1,23.7-23.2,23.7-28.4.2-56.7,0-85.1,0-2.1,0-3.7-.2-3.7-3,0-34.8,0-69.6,0-104.7Z"/>
      <path class="cls-7" d="M541.2,57.9c3.2,3.7,4.9,7.2,4.9,11.5,0,26.3,0,52.7,0,79,0,3.1-1,3.8-3.9,3.8-12-.1-23.9,0-35.9,0-5.1,0-6.4,1.3-6.4,6.5,0,22.4,0,44.9,0,67.3,0,1.4,0,2.8,0,4.6-1.7,0-3.1.2-4.5.2-29.4,0-58.7,0-88.1,0-3.6,0-7.4-.9-10.9-2.2-5.7-2.2-11.2-5.1-15.8-7.2,53.5-54.4,106.9-108.8,160.6-163.3Z"/>
      <path class="cls-7" d="M282.5,204.3c-52.7,4.7-97.3,25.8-135.2,62.8,0-11.5,0-21.9,0-32.2,0-2.6-.5-5.2-.5-7.9,0-34.6,0-69.2,0-103.8q0-5.2,5.2-5.2c13.1,0,26.2,0,39.3,0,3.5,0,6.2,1.1,8.7,3.6,8.9,8.9,18,17.5,26.9,26.3,17.9,17.8,35.7,35.7,53.6,53.5.6.6,1,1.3,2.1,2.8Z"/>
      <path class="cls-7" d="M293.9,794.2c-39.1-39.7-77.8-78.9-116.5-118.3,4.4-4.5,9.6-10,15.1-15.4,6-5.9,12-11.8,18-17.7,3.5-3.4,6.8-7.1,10.5-10.2,1.1-.9,3.3-1.1,4.8-.7,12.2,3,24.2,6.7,36.5,9,9.3,1.8,18.9,2.1,28.4,2.6,3.3.2,4.3,1.2,4.3,4.4,0,43.6,0,87.2-.1,130.7,0,4.9-.6,9.8-1,15.5Z"/>
      <path class="cls-7" d="M293.9,203.9c-1.8-1.3-3.1-2-4.1-3-21.8-21.5-43.6-43.1-65.4-64.7-6.3-6.2-12.3-12.8-19-18.7-4.2-3.7-4.7-8.1-4.8-12.8-.2-17.5,0-35-.1-52.5,0-3,1.1-3.9,4-3.9,28.7,0,57.4,0,86.2,0,2.8,0,3.7.7,3.7,3.6.1,48.1.4,96.2.6,144.3,0,2.2-.5,4.5-.9,7.6Z"/>
      <path class="cls-9" d="M357.8,495.5c9.1-9,18.1-17.9,27.1-26.9,9.8-9.8,19.6-19.6,29.4-29.4,2.5-2.5,4.8-5.1,7.1-7.8,1.9-2.2,3.3-2,5.2,0,6.7,6.9,13.5,13.6,20.3,20.3,11.4,11.3,22.9,22.4,34.2,33.7,3.8,3.8,7.5,7.8,11.1,11.8.7.8,1.2,2.3.9,3.2-4.7,13.7-10.6,26.9-18.3,39.2-1.6,2.5-3.3,3.5-6.4,3.5-20-.2-40.1,0-60.1-.2-1.7,0-3.9-.6-5-1.7-14.9-14.7-29.7-29.5-44.5-44.3-.3-.3-.6-.8-1.1-1.5Z"/>
      <path class="cls-9" d="M365,689c19.7,0,39.3,0,59,0,3.4,0,4.2,1,4.2,4.3-.1,34-.1,68,0,102,0,3.2-.4,5.2-4.4,5.2-13,0-25.9.3-38.9.5-2.6,0-2.2-1.9-2.2-3.4-.2-15.6-.5-31.2-.6-46.8,0-10.2,0-10.2-10.3-10.2-22.2,0-44.3,0-66.5,0-3.2,0-4.4-.7-4.3-4.1.2-14.4.2-28.7,0-43.1,0-3.3,1-4.4,4.3-4.3,19.9.1,39.8,0,59.7,0h0Z"/>
      <path class="cls-7" d="M348.2,109.6c14.5,0,29,0,43.5,0,3,0,3.9.8,3.9,3.8-.1,25.8,0,51.7-.2,77.5,0,1.8-.9,4-2.1,5.2-6.2,6.4-12.8,12.5-19,18.9-2.3,2.4-4.4,2.1-7.1,1.3-10.2-2.9-20.4-6.3-30.8-8.4-10.2-2-20.6-2.8-31-3.7-3.5-.3-4.5-1.3-4.4-4.7.1-28.6.1-57.2,0-85.8,0-3.3.8-4.3,4.2-4.3,14.4.2,28.7,0,43.1,0Z"/>
      <path class="cls-9" d="M266.1,777.2H76.9l-.7-.8c31.7-31.4,63.4-62.8,95.2-94.3,31.8,31.9,63.2,63.5,94.7,95.1Z"/>
      <path class="cls-9" d="M215.9,287.4c24.3,0,48.6,0,73,0,1.7,0,4.8.5,4.9,1.1.5,2.8,1.4,5.9-1.3,8.5-3.9,3.8-7.7,7.6-11.5,11.5-23.5,23.5-47,47-70.6,70.5-3.6,3.6-3.6,3.6-7.3,0-23.5-23.5-47-47-70.5-70.5-1.2-1.2-2.4-2.3-3.7-3.2-2.7-1.9-3.2-3.9-.8-6.5,2.5-2.8,4.9-5.8,7.2-8.7,1.7-2.2,3.8-2.8,6.6-2.8,24.7.1,49.4,0,74.1,0h0Z"/>
      <path class="cls-7" d="M203.2,458.4c12,12.9,23.9,25.9,36.2,38.5,16.8,17.2,34,34.1,51.1,51.1,2.3,2.3,1.4,3.8-.5,5.7-11.5,11.5-23,23-34.4,34.5-10.7,10.7-21.4,21.3-32,32.1-2,2.1-3.8,2.5-6.2,1.2-4.9-2.6-9.9-5-14.7-7.8-1.1-.7-2.1-2.6-2.1-4,0-11.9.4-23.9.5-35.8,0-4.6-.5-9.3-.5-13.9,0-29.6,0-59.2,0-88.8,0-3.7.5-7.5.8-11.2.6-.5,1.3-1,1.9-1.5Z"/>
      <path class="cls-9" d="M545.9,237.5c0,1,.2,2.1.2,3.2,0,58.5,0,116.9,0,175.4,0,3.6-.9,4.8-4.6,4.7-8.4-.3-16.9-.2-25.3,0-2.6,0-3.3-.8-3.5-3.4-1-10-2.2-19.9-3.5-29.8-2.5-19.9-8.9-38.6-17-56.8-2.5-5.5-5.3-10.9-8.1-16.2-2.3-4.3-2-5.1,1.4-8.3,6.5-6.3,12.9-12.7,19-19.3,1.1-1.2,1.4-3.5,1.4-5.3,0-13.5.1-27,0-40.4,0-3.2.6-4.4,4.1-4.3,8.8.3,17.6,0,26.5.1,3,0,5.9.4,9.5.7Z"/>
      <path class="cls-7" d="M122.5,307.6c26.5,27.1,52.5,53.7,79.7,81.6-1.6,1.2-4.4,2.8-6.6,4.9-8.2,8-16.2,16.2-24.4,24.2-1.3,1.2-3.4,2.2-5.2,2.2-24.1.1-48.1,0-72.2.2-2.9,0-3.9-.7-3.9-3.8-.2-20.9,3.5-41.1,10.1-61,5.3-15.9,12.4-31,20.5-45.6.4-.6.8-1.2,2-2.8Z"/>
      <path class="cls-9" d="M163.9,596.6c-5.1,5.3-9.6,10.2-14.3,14.9-11.7,11.6-23.5,23-35.2,34.6-2,2-4,2.9-6.9,2.9-18.1-.1-36.3-.1-54.4,0-3.2,0-4-1-4-4.1.1-13.2.1-26.5,0-39.7,0-3.1.7-5.2,3.1-7.5,19-18.7,37.9-37.7,56.7-56.6,1.1-1.1,1.9-2.7,3.4-4.8,14.3,23.7,30.5,43.7,51.7,60.3Z"/>
      <path class="cls-9" d="M49.4,233.9c8.5,8.7,16.4,16.8,24.3,24.8,10.8,11,21.7,21.9,32.6,32.9,3.1,3.1,6.2,6.2,9.5,9.1,1.8,1.6,1.2,3,.4,4.7-4.1,7.8-8.3,15.5-12.1,23.5-9.5,20.2-16.1,41.4-19.3,63.6-1.2,8.5-1.2,17.2-2,25.8,0,.9-1.4,2.4-2.2,2.5-9.2,0-18.4-.2-27.6-.1-2.9,0-4-.8-4-3.9,0-60,0-119.9,0-179.9,0-.6.1-1.2.3-2.9Z"/>
      <path class="cls-7" d="M220.4,280.6c-23.2,0-46.4,0-69.5,0-1.5,0-2.9-.8-4.4-1.2.7-1.3,1.1-3,2.1-3.9,9.1-8.5,17.9-17.4,27.6-25,11.7-9.1,24.7-16.4,38.4-22.3,13.6-5.8,27.4-10.7,41.8-13.6,11.3-2.3,22.7-3.9,34.4-3.5,3,.1,4.1,1.1,4.1,4,0,20.7,0,41.3,0,62,0,3.4-1.8,3.8-4.6,3.8-23.3,0-46.6,0-69.9,0h0Z"/>
      <path class="cls-9" d="M476.9,314.7c18.3,33.3,28.9,67.8,29.3,105.7-1.2,0-2.5.2-3.9.2-19.7,0-39.3,0-59,0-3.9,0-7.8.2-11.7.6-4.5.6-7.2-1.8-10-4.7-3.3-3.5-6.9-6.6-10.2-10-4.4-4.5-8.7-9-13.5-14,26.2-25.9,52.2-51.5,78.8-77.8Z"/>
      <path class="cls-9" d="M293.9,542.5c-38.3-38.6-76-76.8-114.1-115.2,1.2,0,2.5,0,3.8,0,35.4,0,70.8,0,106.2,0,5,0,5.1,0,5.1,5,0,32.9,0,65.8,0,98.6,0,3.6-.5,7.2-.9,11.6Z"/>
      <path class="cls-9" d="M301,542.5c0-14.6,0-28.2,0-41.8,0-23.2,0-46.4,0-69.5,0-2.5.2-3.9,3.3-3.9,36.7.1,73.3,0,110,0,.6,0,1.2,0,2.7.2-38.8,38.5-77,76.4-115.9,115Z"/>
      <path class="cls-9" d="M140.7,118c0,2,0,3.3,0,4.7,0,49.4,0,98.8-.1,148.2,0,2.4-1.6,5.2-3.2,7.2-4.5,5.8-9.4,11.5-14.3,17-.6.6-2.7.8-3.2.3-6.9-6.6-13.7-13.4-20.4-20.3-.8-.8-1.1-2.3-1.1-3.4,0-41.6,0-83.2,0-124.8,0-2,.4-3.2,2.6-3.8,11.1-3,18.1-10.4,21.6-21.1,1.1-3.3,2.6-4.3,5.9-4.1,3.9.3,7.8,0,12.3,0Z"/>
      <path class="cls-7" d="M53.2,790.2c-3.1-2.9-4-6.5-4.1-10.3,0-40.6,0-81.2-.1-121.7,0-2.5.8-3.2,3.3-3.2,17.6,0,35.3,0,52.9,0,3.1,0,4.5.9,4.5,4.4-.1,23.9,0,47.9-.2,71.8,0,1.6-.9,3.7-2.1,4.9-11.3,11.4-22.8,22.6-34.2,34-6.1,6-12,12.2-18,18.3-.6.6-1.3,1.2-2.1,1.9Z"/>
      <path class="cls-9" d="M49.3,590.4v-163.1c2.5,0,4.8,0,7.2,0,7.7,0,15.4,0,23.1,0,2.6,0,3.6.8,3.6,3.5.6,26.8,6.6,52.5,16.1,77.4,2.4,6.4,5.5,12.7,8.5,18.9,1.4,2.8,1.1,4.6-1.2,6.9-11.7,11.4-23.1,23.1-34.7,34.7-6.8,6.8-13.7,13.7-20.5,20.5-.5.5-1.2.8-2.1,1.3Z"/>
      <path class="cls-7" d="M365,298.8c-19,0-38,0-57,0-1.5,0-3-.8-4.5-1.2.8-1.3,1.3-2.9,2.4-3.9,12.2-12.3,24.5-24.6,36.8-36.9,9.7-9.6,19.6-19.1,29.3-28.7,1.8-1.8,3.4-2.3,5.6-1,12.2,6.9,24.6,13.6,36.7,20.8,11.8,6.9,21.5,16.4,31,26.2,1.5,1.6,1.9,2.9.3,4.4-6.4,6.6-12.8,13.2-19.3,19.6-.7.7-2.3.7-3.5.7-19.3,0-38.5,0-57.8,0h0Z"/>
      <path class="cls-9" d="M113.8,525.8c-4.4-10.7-9.1-20.2-12.2-30.2-3.9-12.2-6.9-24.6-9.4-37.1-1.6-7.9-1.7-16.2-2.1-24.3-.4-6.9-.2-6.9,6.9-6.9,22.7,0,45.4,0,68,0,3,0,5.1.7,7.2,3,4.8,5.2,9.9,10,14.9,15,3.6,3.5,3.6,3.6.2,7-6.4,6.4-12.7,12.8-19.1,19.2-10.6,10.6-21.2,21.2-31.9,31.9-7.2,7.2-14.4,14.4-22.4,22.5Z"/>
      <path class="cls-9" d="M194.3,455.4c0,15.1,0,30.2,0,45.3,0,20.7,0,41.3,0,62,0,3-.9,5.2-3.1,7.2-7,6.5-13.9,13.2-20.6,19.9-1.7,1.7-3,2-4.8.3-7.9-7.7-16.5-14.8-23.7-23.2-7.7-8.9-14-18.9-20.9-28.5-1.1-1.5-2.2-3.2-2.7-4.9-.3-1.1.2-2.9,1.1-3.8,5-5.3,10.2-10.5,15.4-15.6,16.3-16.3,32.6-32.5,48.8-48.8,3.3-3.3,6.4-6.9,9.6-10.4.3.2.6.3.8.5Z"/>
      <path class="cls-9" d="M301.2,306.3c11.1,10.9,22.2,21.5,33,32.2,7.9,7.9,15.5,16.1,23.5,24,8.8,8.8,17.8,17.4,26.7,26.1,4.6,4.5,4.5,4.4,0,8.9-6.9,6.7-13.6,13.5-20.3,20.3-1.9,1.9-3.8,2.9-6.6,2.8-17.5-.1-35-.1-52.6,0-2.6,0-3.8-.5-3.8-3.5,0-36.6,0-73.1,0-109.7,0-.4,0-.7.1-1.2Z"/>
      <path class="cls-7" d="M294.9,304.9c0,2.5,0,3.8,0,5.2,0,33.4,0,66.8,0,100.2,0,10.3-.6,10.8-10.6,10.7-12.2-.1-24.3-.4-36.5-.3-2.8,0-4.6-1.1-6.5-3-7.8-8-15.8-15.8-23.7-23.7-.2-.2-.4-.3-.6-.5-5.5-4.6-5.6-5.5-.6-10.4,25.1-25.1,50.3-50.3,75.4-75.4.7-.7,1.5-1.3,3.1-2.7Z"/>
      <path class="cls-9" d="M301,550.1c2.9-.1,4.8-.3,6.6-.3,28.5,0,57,.3,85.4-.2,7-.1,11.7,1.9,16.3,6.8,8.7,9.3,17.9,18.1,27.2,27.5-2.3,2.1-4.6,4.2-6.9,6.2-15.8,13.3-33.5,23.4-52.4,31.8-2.7,1.2-4.2.7-6.1-1.3-15-15.1-30-30.2-45.1-45.2-7.6-7.5-15.2-15-22.8-22.5-.6-.6-1-1.3-2.2-2.8Z"/>
      <path class="cls-7" d="M394.3,387.1c-27.6-27.2-54.9-54-82.7-81.3,1.6-.1,2.5-.2,3.4-.2,34.7,0,69.3,0,104-.1,3.6,0,4.7,1,4.6,4.6-.2,14.7,0,29.5-.2,44.2,0,1.6-.6,3.6-1.7,4.7-9.2,9.5-18.5,18.8-27.8,28.2-.2.2-.5.2.4-.1Z"/>
      <path class="cls-7" d="M115.7,727.1c0-24.4,0-47.8,0-71.1,0-4.2,3.9-5.3,6.1-7.5,15.6-15.9,31.4-31.7,46.9-47.3,7.8,5,15.6,9.9,23.2,14.9,1.2.8,2.3,2.7,2.3,4.2.2,8.6.4,17.2,0,25.7-.1,2.4-1.8,5.2-3.6,7-11,11.3-22.1,22.3-33.2,33.4-12.1,12.1-24.2,24.2-36.4,36.3-1.4,1.4-3,2.5-5.2,4.3Z"/>
      <path class="cls-7" d="M348.2,103.6c-14.5,0-29,0-43.4,0-3,0-3.9-.9-3.8-3.8.1-16,0-32,0-48,0-2.6.7-3.5,3.4-3.5,29.1,0,58.2,0,87.3,0,3,0,4,1,3.9,3.9-.1,16-.1,32,0,48,0,2.7-.9,3.4-3.5,3.4-14.6-.1-29.2,0-43.8,0Z"/>
      <path class="cls-7" d="M90.4,267.8c-2.1-2.6-4.1-5.4-6.4-7.8-10.9-11-21.9-21.9-32.7-32.9-1-1.1-2-2.7-2-4.1-.1-34.4,0-68.8,0-103.2,0-.4.1-.7.3-1.7,4.9,0,9.8,0,14.8.1.7,0,1.8,1.3,2.1,2.2,3.1,12.3,10.8,20.1,23.1,23.3.9.2,2.3,1.4,2.3,2.1.2,10.8.3,21.6.4,32.4,0,28.5,0,56.9,0,85.4,0,1-.1,1.9-.2,2.9-.5.4-1.1.8-1.6,1.3Z"/>
      <path class="cls-7" d="M104,48.4c11.1,0,22.2,0,33.3,0,2.6,0,3.5.8,3.5,3.4,0,18.7-.1,37.3,0,56,0,2.8-1.2,4-3.7,4-3.7.1-7.3,0-11,.1-2.7,0-3.2-1.9-3.7-3.9-2.3-9.3-7.4-16.6-16.6-20-13-4.9-26-1.6-34.4,10-2.3,3.1-3.6,7.1-4.9,10.8-.8,2.2-1.6,3.4-4.2,3.2-3.3-.2-6.6-.1-9.8,0-2.4,0-3.4-.8-3.4-3.3,0-13.5-.1-27,0-40.5.1-8.1,9.1-20.1,21.5-19.8,11.1.3,22.2,0,33.3,0Z"/>
      <path class="cls-7" d="M423.6,683.7c-3.5,0-7,0-10.4,0-33,0-66.1,0-99.1,0-3.6,0-7.3-.3-10.9-.7-.8-.1-2.1-1.4-2.1-2.2-.1-11.6-.2-23.2,0-34.8,0-.8,1.6-2.1,2.5-2.2,18.4-.1,36.2-3.7,53.8-8.4,4.1-1.1,8.2-2.4,12.2-3.9,2.2-.9,3.5-.1,4.9,1.4,5.5,5.8,11.1,11.7,16.7,17.4,8.6,8.7,17.2,17.3,25.8,25.8,2.3,2.3,4.7,4.4,7.1,6.6-.2.3-.3.7-.5,1Z"/>
      <path class="cls-9" d="M338,746.6c11.1,0,22.2,0,33.2,0,3.3,0,4.7.9,4.7,4.5-.2,15.2-.1,30.5,0,45.7,0,3.1-.9,4.2-4.1,4.2-22.3-.1-44.6-.1-66.9,0-3.2,0-4.1-1.1-4.1-4.2.1-15.5.1-31,0-46.5,0-3,.9-3.8,3.9-3.8,11.1.2,22.2,0,33.2,0Z"/>
      <path class="cls-7" d="M455.3,133.2c0-1.1,0-2.2,0-3.3,0-25.7,0-51.4,0-77.1,0-3.5.9-4.4,4.4-4.4,21.3.2,42.6,0,63.9.1,5.3,0,10.1,1.3,13.5,4.9-27,27-53.8,53.7-80.6,80.4-.4-.2-.8-.4-1.1-.6Z"/>
      <path class="cls-2" d="M289.1,800.4c-1.6.2-3.1.5-4.7.5-70.2,0-140.4,0-210.6,0-5.7,0-11.6-.3-16.7-5.3,3.7-3.6,7.3-7.3,11.2-10.5,1.1-.9,3.3-.8,5.1-.8,64.6,0,129.3,0,193.9-.2,5,0,8.4,1.3,11.6,4.9,3.2,3.7,7,6.8,10.6,10.2-.1.4-.2.8-.3,1.2Z"/>
      <path class="cls-9" d="M545.5,540.7c-11.1-11.3-21.9-22.3-32.7-33.3-2.6-2.6-5.1-5.2-8-7.4-3.3-2.5-3.4-5.4-2.3-8.9,4.9-15.2,8-30.8,9.5-46.7.5-4.7.7-9.5.8-14.3,0-2.1.7-2.9,2.9-2.9,9.2,0,18.4,0,27.6,0,2,0,2.9.6,2.9,2.8,0,36.4,0,72.8,0,109.2,0,.3-.2.7-.5,1.4Z"/>
      <path class="cls-7" d="M409.7,237h90c0,1.6.2,2.9.2,4.2,0,12.5,0,24.9,0,37.4,0,1.8-.4,4-1.5,5.2-6,6.4-12.3,12.5-18.5,18.7-.3.3-.8.5-1.8,1.1-17.9-26.8-40.3-49.1-68.3-66.6Z"/>
      <path class="cls-9" d="M194.3,79.9c0,9.3,0,18.6,0,27.9,0,2.9-1.1,4.1-3.9,4.1-13.5,0-26.9,0-40.4,0-2.4,0-3.4-.9-3.3-3.4.3-12.3.5-24.6.6-36.9,0-6.1-.3-12.3-.6-18.4-.2-3.4.8-4.9,4.7-4.9,13,.2,25.9.2,38.9,0,3,0,4.2.7,4.1,4-.2,9.2,0,18.4,0,27.6Z"/>
      <path class="cls-7" d="M545.8,158.2c.1,1.6.2,2.7.2,3.8,0,21.5,0,43.1,0,64.6,0,3.4-1,4.3-4.3,4.2-10.8-.2-21.7-.1-32.5,0-2.6,0-3.5-.7-3.5-3.4,0-21.8,0-43.6,0-65.4,0-2,0-3.8,2.8-3.8,12.2,0,24.4,0,37.1,0Z"/>
      <path class="cls-7" d="M294.9,560c0,.6,0,1.7,0,2.8,0,23.3,0,46.6,0,70,0,4.8,0,5-4.8,4.8-20.2-.7-39.9-4.1-59.1-10.4-.8-.3-1.6-.6-2.4-1-.2,0-.3-.4,0,0,22.2-22.1,44.4-44.1,66.5-66.1Z"/>
      <path class="cls-9" d="M366.8,626.5c-8.5,2.3-16.8,4.8-25.1,6.7-12,2.7-24.1,4.7-36.5,4.6-3.3,0-4.3-.9-4.3-4.2.1-23.5,0-47.1,0-70.6,0-.8,0-1.6,0-2.1,21.7,21.7,43.4,43.4,65.7,65.7Z"/>
      <path class="cls-9" d="M365.9,222.7c-21.7,21.7-43.2,43.1-64.7,64.7,0-.8-.1-1.8-.1-2.7,0-23.2,0-46.4,0-69.6,0-3.2.7-4.4,4.2-4.3,20.9.5,41.1,4.5,60.8,11.8Z"/>
      <path class="cls-7" d="M401.6,188c0-8.8,0-17.1,0-25.4,0-16.4,0-32.7,0-49.1,0-2.8.6-4,3.7-4,13.2.2,26.4.1,39.7,0,2.8,0,3.7.7,3.7,3.6-.2,8.6,0,17.1-.2,25.7,0,1.7-.9,3.7-2.1,4.9-13.7,13.5-27.6,26.8-41.4,40.3-1.1,1-2,2.3-3.4,4Z"/>
      <path class="cls-9" d="M448.2,103.4h-46.3c-.1-1.2-.3-2.3-.3-3.4,0-16,0-32,0-48,0-2.7.5-3.8,3.5-3.8,13.3.1,26.7,0,40,0,2.2,0,3.5.3,3.5,3-.1,16.6,0,33.2,0,49.9,0,.6-.2,1.2-.3,2.2Z"/>
      <path class="cls-9" d="M495.7,490.7c-21.4-21.3-42-42-63.3-63.2h74.4c-1.3,21.1-2.8,41.9-11.1,63.2Z"/>
      <path class="cls-7" d="M352.9,500.2c14.3,14.6,28,28.6,41.6,42.4h-82.7c13.5-13.9,27.1-28,41.1-42.4Z"/>
      <path class="cls-9" d="M117.2,114.3c-.1,13.8-9.1,23-22.6,23.1-12.9.2-22.4-10.4-22.7-22.5-.3-12.8,10-22.7,23-22.7,12.6,0,22.2,9.5,22.3,22.1Z"/>
      <path class="cls-7" d="M429.6,349.7c0-3.4,0-6.7,0-10.1,0-10.2,0-20.4,0-30.6,0-3.2.5-5.7,3.2-8.2,5.9-5.3,11.1-11.3,16.6-16.9.9-.9,1.8-1.7,3.1-2.9,3.9,4.7,7.7,9.1,11.3,13.8,2.7,3.6,5,7.5,7.7,11.1,1.7,2.2.8,3.5-.8,5.1-10.4,10.2-20.7,20.6-31.1,30.8-2.9,2.9-6,5.6-9,8.4-.3-.2-.7-.3-1-.5Z"/>
      <path class="cls-7" d="M511.3,746.5c0,10.7-9.2,19.7-19.7,19.6-10,0-19.3-8.8-19-19.7.3-10.5,8.8-18.9,19.5-18.8,10.9,0,19.3,8.4,19.2,19Z"/>
      <path class="cls-7" d="M538.2,542.9h-57c.3-1,.4-1.8.7-2.5,5.2-11.1,10.5-22.2,15.7-33.3,1-2.1,2.1-2.3,3.7-.7,12,11.9,24.1,23.9,36.9,36.6Z"/>
      <path class="cls-7" d="M520.3,649.3c0,8.9-8.2,17.3-16.8,16.9-8.1-.4-16.2-7.4-15.8-17.3.4-8.3,7.2-15.9,15.1-15.8,10.5.1,17.5,7.1,17.5,16.2Z"/>
      <path class="cls-9" d="M441.6,579.9c-10.1-10.3-19.5-19.9-29.3-29.9h55.6c-8.8,10-17.4,19.7-26.4,29.9Z"/>
      <path class="cls-7" d="M234.2,420.7h-55.4c9.7-10,18.7-19.3,27.3-28.2,10.2,9.3,19.7,18,29.1,26.8-.3.5-.7,1-1,1.5Z"/>
      <path class="cls-7" d="M372,419.4c7-7.3,13.9-14.5,21.2-22.1,7.6,7.7,14.8,15,22,22.3-.2.4-.4.7-.6,1.1h-41.9c-.2-.4-.5-.8-.7-1.3Z"/>
      <path class="cls-7" d="M194.1,610.5c-7.4-4.9-14-9.3-20.4-13.6,7-7.4,13.5-14.1,20.4-21.4v35Z"/>
      <path class="cls-7" d="M200.7,641.4v-20.7c5.1,2.5,9.8,4.8,15.4,7.5-5.5,4.7-10.6,9-15.4,13.1Z"/>
    </g>
  </g>
  <g id="Layer_2" data-name="Layer 2">
    <g>
      <path class="cls-8" d="M41.6,64.2c1.9-7.5,5.2-14.1,11.2-19.2,4.6-3.9,10-5.7,16-5.7,68.9,0,137.9,0,206.8,0,82.3,0,164.6,0,246.9,0,13.8,0,25.3,8.9,28.3,22,.4,1.7.4,3.5.4,5.2,0,236.5,0,472.9.1,709.4,0,15.1-14,28.2-28.4,28.2-149.9-.2-299.7-.3-449.6,0-17.5,0-28.4-10.9-31.2-24.7,0-.5-.4-.9-.6-1.3,0-1.1,0-2.3,0-3.4,0-236.9,0-473.7,0-710.6ZM433.3,690.1c0,35.1,0,69.9,0,104.7,0,2.7,1.6,3,3.7,3,28.4,0,56.7.1,85.1,0,14.1,0,23.2-9.6,23.2-23.7,0-74.2,0-148.5,0-222.7,0-3.5-.8-4.7-4.6-4.7-20.5.2-41.1.2-61.6,0-3.5,0-5.3,1.5-7.3,4-7.4,9-14.9,18-22.6,26.7-3.6,4-3.8,4.2-.3,7.8,12.3,12.4,24.6,24.8,36.9,37.3,2.8,2.8,4.7,4.7,9.9,2.8,14.6-5.3,30.1,5.4,29.9,21-.2,15.6-11.7,26.3-27.8,22.9-17.2-3.6-20.5-22.8-14.2-33.6.8-1.4,1.7-2.6,2.4-3.7-2.2-2.5-4.1-4.7-6.1-6.8-11.9-12-23.8-23.9-35.8-35.8-3.7-3.7-3.8-3.8-7.4-.4-15.5,14.6-33.7,24.9-52.8,33.8-1.7.8-3.5,1.6-5.5,2.6,1,1.2,1.5,1.9,2.1,2.5,9.5,9.7,19,19.5,28.5,29.1,2.6,2.6,5.3,5,7.9,7.5,7.5,7.2,15.2,14.3,22.6,21.7,11.7,11.8,23.1,23.8,34.8,35.6.6.6,2.6.8,3.4.3,4.5-2.6,9.3-3.6,14.5-3.5,10.9.2,18.2,5.7,22.7,15.3,3.9,8.4,1.5,20.4-4.9,27.1-6.5,6.9-18,11-29,6.2-9.2-4-15.8-14.4-15.5-22.6.2-6.4,2.2-11.7,5.3-16.6-12.5-12.5-24.9-24.9-37.6-37.6ZM540.4,54.8c-53.6,54.6-107.1,109-160.6,163.3,4.6,2.2,10.1,5,15.8,7.2,3.4,1.3,7.2,2.2,10.9,2.2,29.4.2,58.7,0,88.1,0,1.4,0,2.9-.1,4.5-.2,0-1.9,0-3.2,0-4.6,0-22.4,0-44.9,0-67.3,0-5.2,1.3-6.5,6.4-6.5,12,0,23.9,0,35.9,0,2.9,0,3.9-.7,3.9-3.8-.1-26.3,0-52.7,0-79,0-4.2-1.6-7.7-4.9-11.5ZM281.7,201.2c-1.1-1.5-1.5-2.3-2.1-2.8-17.8-17.8-35.7-35.7-53.6-53.5-8.9-8.8-18-17.5-26.9-26.3-2.5-2.5-5.2-3.6-8.7-3.6-13.1,0-26.2,0-39.3,0q-5.2,0-5.2,5.2c0,34.6,0,69.2,0,103.8,0,2.6.5,5.2.5,7.9,0,10.3,0,20.7,0,32.2,37.9-37,82.5-58.1,135.2-62.8ZM293.1,791.1c.4-5.7.9-10.6,1-15.5,0-43.6,0-87.2.1-130.7,0-3.2-.9-4.2-4.3-4.4-9.5-.5-19.1-.8-28.4-2.6-12.3-2.3-24.3-6.1-36.5-9-1.5-.4-3.8-.2-4.8.7-3.7,3.2-7,6.8-10.5,10.2-6,5.9-12.1,11.7-18,17.7-5.4,5.4-10.7,10.9-15.1,15.4,38.7,39.3,77.4,78.6,116.5,118.3ZM293.1,200.8c.4-3.2.9-5.4.9-7.6-.2-48.1-.4-96.2-.6-144.3,0-2.9-.9-3.6-3.7-3.6-28.7,0-57.4,0-86.2,0-2.9,0-4,.8-4,3.9.1,17.5,0,35,.1,52.5,0,4.7.6,9.1,4.8,12.8,6.7,5.8,12.7,12.4,19,18.7,21.8,21.6,43.6,43.2,65.4,64.7,1,1,2.3,1.7,4.1,3ZM357,492.4c.5.7.8,1.1,1.1,1.5,14.8,14.8,29.6,29.6,44.5,44.3,1.1,1.1,3.3,1.7,5,1.7,20,.1,40.1,0,60.1.2,3.1,0,4.8-1,6.4-3.5,7.7-12.3,13.7-25.5,18.3-39.2.3-.9-.2-2.4-.9-3.2-3.6-4-7.3-8-11.1-11.8-11.4-11.3-22.8-22.5-34.2-33.7-6.8-6.7-13.6-13.5-20.3-20.3-1.9-2-3.4-2.2-5.2,0-2.3,2.7-4.6,5.3-7.1,7.8-9.8,9.8-19.6,19.6-29.4,29.4-9,9-18,17.9-27.1,26.9ZM364.2,685.9h0c-19.9,0-39.8.1-59.7,0-3.3,0-4.4,1-4.3,4.3.1,14.4.2,28.7,0,43.1,0,3.5,1.1,4.2,4.3,4.1,22.2-.1,44.3,0,66.5,0,10.2,0,10.2,0,10.3,10.2.1,15.6.4,31.2.6,46.8,0,1.6-.4,3.5,2.2,3.4,13-.2,25.9-.5,38.9-.5,4,0,4.4-1.9,4.4-5.2,0-34,0-68,0-102,0-3.3-.8-4.3-4.2-4.3-19.6.2-39.3,0-59,0ZM347.4,106.5c-14.4,0-28.7.1-43.1,0-3.4,0-4.2,1-4.2,4.3.1,28.6.1,57.2,0,85.8,0,3.4,1,4.4,4.4,4.7,10.4.9,20.8,1.7,31,3.7,10.4,2.1,20.6,5.4,30.8,8.4,2.7.8,4.8,1.1,7.1-1.3,6.2-6.4,12.8-12.5,19-18.9,1.2-1.3,2.1-3.5,2.1-5.2.1-25.8,0-51.7.2-77.5,0-3-.9-3.9-3.9-3.8-14.5.1-29,0-43.5,0ZM265.3,774.1c-31.4-31.6-62.9-63.2-94.7-95.1-31.7,31.4-63.5,62.9-95.2,94.3l.7.8h189.2ZM215.1,284.3h0c-24.7,0-49.4,0-74.1,0-2.8,0-4.9.6-6.6,2.8-2.3,3-4.6,5.9-7.2,8.7-2.4,2.6-1.9,4.6.8,6.5,1.3.9,2.5,2,3.7,3.2,23.5,23.5,47,47,70.5,70.5,3.7,3.7,3.7,3.7,7.3,0,23.5-23.5,47.1-47,70.6-70.5,3.8-3.8,7.6-7.7,11.5-11.5,2.6-2.5,1.8-5.7,1.3-8.5-.1-.7-3.2-1.1-4.9-1.1-24.3,0-48.6,0-73,0ZM202.4,455.3c-.6.5-1.3,1-1.9,1.5-.3,3.7-.7,7.5-.8,11.2,0,29.6,0,59.2,0,88.8,0,4.6.6,9.3.5,13.9,0,11.9-.4,23.9-.5,35.8,0,1.4,1,3.3,2.1,4,4.8,2.8,9.8,5.2,14.7,7.8,2.4,1.3,4.2.9,6.2-1.2,10.6-10.8,21.3-21.4,32-32.1,11.5-11.5,22.9-23,34.4-34.5,1.9-1.9,2.7-3.4.5-5.7-17.1-17-34.2-33.9-51.1-51.1-12.3-12.6-24.1-25.7-36.2-38.5ZM545.1,234.4c-3.5-.3-6.5-.6-9.5-.7-8.8,0-17.6.1-26.5-.1-3.5-.1-4.2,1.1-4.1,4.3.2,13.5.1,27,0,40.4,0,1.8-.3,4.1-1.4,5.3-6.2,6.6-12.5,13.1-19,19.3-3.3,3.2-3.6,4.1-1.4,8.3,2.8,5.3,5.6,10.7,8.1,16.2,8.1,18.2,14.5,36.9,17,56.8,1.2,9.9,2.5,19.9,3.5,29.8.2,2.6.9,3.5,3.5,3.4,8.4-.1,16.9-.2,25.3,0,3.7.1,4.6-1.1,4.6-4.7,0-58.5,0-116.9,0-175.4,0-1.1-.1-2.2-.2-3.2ZM121.7,304.5c-1.2,1.6-1.6,2.2-2,2.8-8.2,14.6-15.3,29.7-20.5,45.6-6.6,19.8-10.3,40-10.1,61,0,3.1,1.1,3.8,3.9,3.8,24.1,0,48.1,0,72.2-.2,1.8,0,3.9-1,5.2-2.2,8.2-8,16.2-16.2,24.4-24.2,2.2-2.1,5-3.7,6.6-4.9-27.2-27.9-53.2-54.5-79.7-81.6ZM163.1,593.5c-21.2-16.5-37.4-36.6-51.7-60.3-1.5,2.2-2.3,3.7-3.4,4.8-18.9,18.9-37.7,37.8-56.7,56.6-2.3,2.3-3.1,4.4-3.1,7.5.1,13.2.2,26.5,0,39.7,0,3.1.8,4.1,4,4.1,18.1-.1,36.3-.1,54.4,0,2.9,0,4.9-.9,6.9-2.9,11.7-11.6,23.5-23,35.2-34.6,4.7-4.7,9.2-9.5,14.3-14.9ZM48.6,230.8c-.2,1.8-.3,2.3-.3,2.9,0,60,0,119.9,0,179.9,0,3,1.2,3.9,4,3.9,9.2,0,18.4.2,27.6.1.8,0,2.1-1.5,2.2-2.5.7-8.6.7-17.3,2-25.8,3.2-22.1,9.7-43.3,19.3-63.6,3.7-8,8-15.7,12.1-23.5.9-1.7,1.4-3.1-.4-4.7-3.3-2.9-6.4-6-9.5-9.1-10.9-10.9-21.8-21.9-32.6-32.9-7.9-8-15.7-16.1-24.3-24.8ZM219.6,277.5h0c23.3,0,46.6,0,69.9,0,2.8,0,4.6-.5,4.6-3.8,0-20.7,0-41.3,0-62,0-2.8-1.1-3.9-4.1-4-11.6-.4-23.1,1.2-34.4,3.5-14.5,2.9-28.3,7.9-41.8,13.6-13.7,5.9-26.7,13.1-38.4,22.3-9.8,7.6-18.5,16.6-27.6,25-1,1-1.4,2.6-2.1,3.9,1.5.4,2.9,1.2,4.4,1.2,23.2,0,46.4,0,69.5,0ZM476.1,311.6c-26.6,26.3-52.6,51.9-78.8,77.8,4.8,5,9.1,9.6,13.5,14,3.4,3.4,7,6.5,10.2,10,2.8,2.9,5.5,5.3,10,4.7,3.9-.5,7.8-.6,11.7-.6,19.7,0,39.3,0,59,0,1.3,0,2.6-.1,3.9-.2-.4-37.9-11-72.4-29.3-105.7ZM293.1,539.4c.4-4.5.9-8,.9-11.6,0-32.9,0-65.8,0-98.6,0-5,0-5-5.1-5-35.4,0-70.8,0-106.2,0-1.3,0-2.6,0-3.8,0,38.1,38.4,75.8,76.6,114.1,115.2ZM300.2,539.4c38.9-38.6,77.1-76.5,115.9-115-1.5-.1-2.1-.2-2.7-.2-36.7,0-73.3,0-110,0-3.2,0-3.4,1.4-3.3,3.9,0,23.2,0,46.4,0,69.5,0,13.6,0,27.2,0,41.8ZM139.9,114.9c-4.5,0-8.4.2-12.3,0-3.3-.2-4.9.8-5.9,4.1-3.5,10.7-10.4,18.2-21.6,21.1-2.2.6-2.6,1.8-2.6,3.8,0,41.6,0,83.2,0,124.8,0,1.2.3,2.6,1.1,3.4,6.7,6.9,13.5,13.6,20.4,20.3.5.5,2.7.3,3.2-.3,4.9-5.6,9.7-11.2,14.3-17,1.6-2,3.2-4.8,3.2-7.2.2-49.4.1-98.8.1-148.2,0-1.4,0-2.7,0-4.7ZM52.4,787.1c.8-.7,1.5-1.2,2.1-1.9,6-6.1,11.9-12.3,18-18.3,11.4-11.4,22.9-22.6,34.2-34,1.2-1.2,2.1-3.2,2.1-4.9.1-23.9,0-47.9.2-71.8,0-3.4-1.4-4.4-4.5-4.4-17.6,0-35.3,0-52.9,0-2.4,0-3.3.7-3.3,3.2,0,40.6,0,81.2.1,121.7,0,3.8,1,7.4,4.1,10.3ZM48.5,587.3c.9-.6,1.6-.8,2.1-1.3,6.9-6.8,13.7-13.6,20.5-20.5,11.5-11.6,23-23.2,34.7-34.7,2.4-2.3,2.6-4,1.2-6.9-3-6.2-6.1-12.4-8.5-18.9-9.4-24.9-15.5-50.6-16.1-77.4,0-2.6-1.1-3.5-3.6-3.5-7.7.1-15.4,0-23.1,0-2.3,0-4.7,0-7.2,0v163.1ZM364.2,295.7h0c19.3,0,38.5,0,57.8,0,1.2,0,2.8,0,3.5-.7,6.5-6.5,12.9-13.1,19.3-19.6,1.5-1.6,1.2-2.9-.3-4.4-9.5-9.8-19.2-19.2-31-26.2-12.1-7.1-24.5-13.8-36.7-20.8-2.2-1.3-3.8-.8-5.6,1-9.7,9.6-19.6,19.1-29.3,28.7-12.3,12.2-24.6,24.5-36.8,36.9-1,1.1-1.6,2.6-2.4,3.9,1.5.4,3,1.2,4.5,1.2,19,0,38,0,57,0ZM113,522.7c8.1-8.1,15.2-15.3,22.4-22.5,10.6-10.6,21.2-21.2,31.9-31.9,6.4-6.4,12.8-12.8,19.1-19.2,3.4-3.4,3.4-3.5-.2-7-5-5-10.2-9.8-14.9-15-2.1-2.3-4.2-3-7.2-3-22.7.1-45.4,0-68,0-7.1,0-7.3,0-6.9,6.9.4,8.1.5,16.4,2.1,24.3,2.5,12.5,5.6,25,9.4,37.1,3.2,10,7.8,19.5,12.2,30.2ZM193.5,452.3c-.3-.2-.6-.3-.8-.5-3.2,3.5-6.3,7.1-9.6,10.4-16.2,16.3-32.5,32.5-48.8,48.8-5.2,5.2-10.4,10.3-15.4,15.6-.8.9-1.4,2.7-1.1,3.8.5,1.8,1.6,3.4,2.7,4.9,6.9,9.6,13.2,19.6,20.9,28.5,7.2,8.3,15.7,15.5,23.7,23.2,1.7,1.7,3.1,1.4,4.8-.3,6.8-6.7,13.7-13.4,20.6-19.9,2.2-2.1,3.1-4.2,3.1-7.2-.1-20.7,0-41.3,0-62,0-15.1,0-30.2,0-45.3ZM300.4,303.2c0,.5-.1.8-.1,1.2,0,36.6,0,73.1,0,109.7,0,3,1.2,3.5,3.8,3.5,17.5,0,35,0,52.6,0,2.8,0,4.7-.9,6.6-2.8,6.7-6.8,13.5-13.6,20.3-20.3,4.6-4.5,4.7-4.4,0-8.9-8.9-8.7-17.9-17.3-26.7-26.1-7.9-7.9-15.5-16.1-23.5-24-10.9-10.8-21.9-21.4-33-32.2ZM294.1,301.8c-1.6,1.4-2.4,2-3.1,2.7-25.1,25.1-50.3,50.2-75.4,75.4-5,5-4.9,5.9.6,10.4.2.2.4.3.6.5,7.9,7.9,15.9,15.8,23.7,23.7,1.9,1.9,3.7,3,6.5,3,12.2,0,24.3.2,36.5.3,10,.1,10.6-.5,10.6-10.7,0-33.4,0-66.8,0-100.2,0-1.3,0-2.7,0-5.2ZM300.2,547c1.2,1.5,1.7,2.2,2.2,2.8,7.6,7.5,15.3,14.9,22.8,22.5,15.1,15,30.2,30.1,45.1,45.2,1.9,2,3.4,2.5,6.1,1.3,18.8-8.3,36.5-18.5,52.4-31.8,2.3-2,4.6-4.1,6.9-6.2-9.4-9.4-18.6-18.2-27.2-27.5-4.6-4.9-9.3-6.9-16.3-6.8-28.5.5-57,.2-85.4.2-1.8,0-3.7.2-6.6.3ZM393.5,384c-.8.3-.5.3-.4.1,9.3-9.4,18.7-18.7,27.8-28.2,1.1-1.1,1.6-3.1,1.7-4.7.1-14.7,0-29.5.2-44.2,0-3.6-1-4.7-4.6-4.6-34.7.1-69.3.1-104,.1-.9,0-1.8.1-3.4.2,27.8,27.3,55.1,54.1,82.7,81.3ZM114.9,724c2.2-1.8,3.8-3,5.2-4.3,12.2-12.1,24.3-24.2,36.4-36.3,11.1-11.1,22.3-22.1,33.2-33.4,1.8-1.8,3.5-4.6,3.6-7,.4-8.5.3-17.1,0-25.7,0-1.4-1.1-3.4-2.3-4.2-7.6-5.1-15.4-9.9-23.2-14.9-15.5,15.6-31.3,31.3-46.9,47.3-2.2,2.3-6.1,3.4-6.1,7.5,0,23.3,0,46.6,0,71.1ZM347.4,100.5c14.6,0,29.2,0,43.8,0,2.6,0,3.5-.7,3.5-3.4-.1-16-.1-32,0-48,0-3-1-3.9-3.9-3.9-29.1,0-58.2,0-87.3,0-2.7,0-3.4.9-3.4,3.5,0,16,.1,32,0,48,0,3,.8,3.9,3.8,3.8,14.5-.1,29,0,43.4,0ZM89.6,264.7c.5-.4,1.1-.8,1.6-1.3,0-1,.2-1.9.2-2.9,0-28.5,0-56.9,0-85.4,0-10.8-.1-21.6-.4-32.4,0-.7-1.4-1.9-2.3-2.1-12.4-3.2-20-10.9-23.1-23.3-.2-.9-1.3-2.2-2.1-2.2-5-.2-10-.1-14.8-.1-.2,1-.3,1.3-.3,1.7,0,34.4,0,68.8,0,103.2,0,1.4,1,3.1,2,4.1,10.9,11,21.9,21.9,32.7,32.9,2.4,2.4,4.3,5.2,6.4,7.8ZM103.2,45.3c-11.1,0-22.2.2-33.3,0-12.5-.3-21.4,11.7-21.5,19.8-.2,13.5,0,27,0,40.5,0,2.5,1,3.4,3.4,3.3,3.3-.1,6.6-.2,9.8,0,2.6.2,3.4-1,4.2-3.2,1.4-3.7,2.6-7.7,4.9-10.8,8.4-11.6,21.4-14.9,34.4-10,9.2,3.4,14.3,10.7,16.6,20,.5,2,.9,4,3.7,3.9,3.7,0,7.3,0,11-.1,2.5,0,3.7-1.2,3.7-4-.1-18.7-.1-37.3,0-56,0-2.7-.9-3.5-3.5-3.4-11.1.1-22.2,0-33.3,0ZM422.8,680.6c.2-.3.3-.7.5-1-2.4-2.2-4.8-4.3-7.1-6.6-8.6-8.6-17.3-17.2-25.8-25.8-5.6-5.7-11.2-11.5-16.7-17.4-1.4-1.5-2.7-2.3-4.9-1.4-4,1.5-8.1,2.8-12.2,3.9-17.6,4.7-35.4,8.3-53.8,8.4-.9,0-2.5,1.4-2.5,2.2-.2,11.6-.1,23.2,0,34.8,0,.8,1.3,2.1,2.1,2.2,3.6.4,7.3.7,10.9.7,33,0,66.1,0,99.1,0,3.5,0,7,0,10.4,0ZM337.2,743.5c-11.1,0-22.2,0-33.2,0-3,0-3.9.8-3.9,3.8.1,15.5.1,31,0,46.5,0,3.1.8,4.2,4.1,4.2,22.3-.1,44.6-.1,66.9,0,3.2,0,4.1-1.1,4.1-4.2-.1-15.2-.2-30.5,0-45.7,0-3.6-1.4-4.6-4.7-4.5-11.1.1-22.2,0-33.2,0ZM454.5,130.1c.4.2.8.4,1.1.6,26.8-26.7,53.6-53.5,80.6-80.4-3.4-3.6-8.2-4.9-13.5-4.9-21.3,0-42.6,0-63.9-.1-3.5,0-4.4.9-4.4,4.4.1,25.7,0,51.4,0,77.1,0,1.1,0,2.2,0,3.3ZM288.3,797.3c.1-.4.2-.8.3-1.2-3.5-3.4-7.3-6.6-10.6-10.2-3.2-3.6-6.6-4.9-11.6-4.9-64.6.2-129.3.2-193.9.2-1.7,0-3.9-.1-5.1.8-3.9,3.2-7.4,6.9-11.2,10.5,5.1,5,11,5.3,16.7,5.3,70.2,0,140.4,0,210.6,0,1.6,0,3.1-.3,4.7-.5ZM544.7,537.6c.3-.7.5-1.1.5-1.4,0-36.4,0-72.8,0-109.2,0-2.2-.9-2.8-2.9-2.8-9.2,0-18.4,0-27.6,0-2.1,0-2.8.8-2.9,2.9-.1,4.8-.3,9.5-.8,14.3-1.5,15.9-4.6,31.5-9.5,46.7-1.1,3.5-1,6.4,2.3,8.9,2.9,2.2,5.5,4.8,8,7.4,10.8,11,21.6,22,32.7,33.3ZM408.9,233.9c28,17.6,50.4,39.9,68.3,66.6.9-.6,1.4-.8,1.8-1.1,6.2-6.2,12.5-12.3,18.5-18.7,1.1-1.2,1.5-3.4,1.5-5.2.1-12.5,0-24.9,0-37.4,0-1.3-.1-2.7-.2-4.2h-90ZM193.6,76.8c0-9.2-.1-18.4,0-27.6,0-3.2-1.1-4-4.1-4-13,.1-25.9.2-38.9,0-3.9,0-4.9,1.4-4.7,4.9.3,6.1.6,12.3.6,18.4,0,12.3-.3,24.6-.6,36.9,0,2.4.9,3.4,3.3,3.4,13.5,0,26.9,0,40.4,0,2.9,0,4-1.2,3.9-4.1-.1-9.3,0-18.6,0-27.9ZM545,155.1c-12.7,0-24.9,0-37.1,0-2.8,0-2.8,1.8-2.8,3.8,0,21.8,0,43.6,0,65.4,0,2.7.9,3.4,3.5,3.4,10.8-.1,21.7-.2,32.5,0,3.3,0,4.3-.8,4.3-4.2-.1-21.5,0-43.1,0-64.6,0-1.1-.1-2.2-.2-3.8ZM294.1,556.9c-22.1,22-44.2,44-66.5,66.1-.2-.3-.1,0,0,0,.8.4,1.6.7,2.4,1,19.2,6.3,38.9,9.7,59.1,10.4,4.8.2,4.8,0,4.8-4.8,0-23.3,0-46.6,0-70,0-1.1,0-2.2,0-2.8ZM366,623.4c-22.3-22.3-44-44-65.7-65.7,0,.5,0,1.3,0,2.1,0,23.5,0,47.1,0,70.6,0,3.4,1,4.2,4.3,4.2,12.4.2,24.5-1.8,36.5-4.6,8.4-1.9,16.6-4.4,25.1-6.7ZM365.1,219.6c-19.7-7.3-39.9-11.3-60.8-11.8-3.5,0-4.2,1.1-4.2,4.3.1,23.2,0,46.4,0,69.6,0,.9,0,1.9.1,2.7,21.6-21.6,43-43,64.7-64.7ZM400.8,184.9c1.5-1.7,2.3-2.9,3.4-4,13.8-13.4,27.7-26.8,41.4-40.3,1.2-1.2,2-3.2,2.1-4.9.2-8.6,0-17.1.2-25.7,0-2.9-.9-3.6-3.7-3.6-13.2.1-26.4.2-39.7,0-3.2,0-3.7,1.1-3.7,4,.1,16.4,0,32.7,0,49.1,0,8.3,0,16.6,0,25.4ZM447.4,100.3c.1-1,.3-1.6.3-2.2,0-16.6,0-33.2,0-49.9,0-2.8-1.3-3-3.5-3-13.3,0-26.7.1-40,0-3,0-3.5,1.1-3.5,3.8.1,16,0,32,0,48,0,1.1.2,2.2.3,3.4h46.3ZM494.9,487.6c8.4-21.3,9.9-42.1,11.1-63.2h-74.4c21.2,21.2,41.9,41.8,63.3,63.2ZM352.1,497.1c-14,14.5-27.6,28.5-41.1,42.4h82.7c-13.6-13.9-27.3-27.9-41.6-42.4ZM116.4,111.2c0-12.5-9.7-22.1-22.3-22.1-13.1,0-23.3,9.9-23,22.7.3,12.1,9.8,22.7,22.7,22.5,13.5-.2,22.4-9.4,22.6-23.1ZM428.8,346.6c.3.2.7.3,1,.5,3-2.8,6.1-5.5,9-8.4,10.4-10.2,20.7-20.6,31.1-30.8,1.6-1.6,2.5-2.8.8-5.1-2.8-3.6-5-7.5-7.7-11.1-3.6-4.6-7.4-9.1-11.3-13.8-1.3,1.2-2.3,2-3.1,2.9-5.5,5.7-10.7,11.7-16.6,16.9-2.7,2.5-3.3,4.9-3.2,8.2,0,10.2,0,20.4,0,30.6,0,3.4,0,6.7,0,10.1ZM510.5,743.4c0-10.6-8.3-18.9-19.2-19-10.7,0-19.2,8.3-19.5,18.8-.3,10.9,8.9,19.7,19,19.7,10.6,0,19.7-9,19.7-19.6ZM537.4,539.8c-12.8-12.7-24.9-24.7-36.9-36.6-1.6-1.5-2.7-1.4-3.7.7-5.2,11.1-10.5,22.2-15.7,33.3-.3.7-.5,1.5-.7,2.5h57ZM519.5,646.2c0-9.1-7-16.1-17.5-16.2-7.9,0-14.8,7.5-15.1,15.8-.4,9.9,7.7,16.8,15.8,17.3,8.6.4,16.8-7.9,16.8-16.9ZM440.8,576.8c9-10.2,17.5-19.9,26.4-29.9h-55.6c9.8,10,19.2,19.6,29.3,29.9ZM233.4,417.6c.3-.5.7-1,1-1.5-9.5-8.7-19-17.4-29.1-26.8-8.6,8.9-17.6,18.2-27.3,28.2h55.4ZM371.2,416.3c.2.4.5.8.7,1.3h41.9c.2-.4.4-.7.6-1.1-7.2-7.3-14.4-14.6-22-22.3-7.3,7.6-14.3,14.9-21.2,22.1ZM193.3,607.3v-35c-6.9,7.3-13.4,14-20.4,21.4,6.4,4.3,13,8.7,20.4,13.6ZM199.9,638.3c4.8-4.1,9.9-8.4,15.4-13.1-5.6-2.8-10.4-5.1-15.4-7.5v20.7Z"/>
      <path class="cls-8" d="M41.6,64.2c0,236.9,0,473.7,0,710.6,0,1.1,0,2.3,0,3.4-.3-1.3-.8-2.6-.8-3.9,0-235.4,0-470.8,0-706.2,0-1.3.5-2.6.8-3.9Z"/>
    </g>
  </g>
</svg>